<?xml version="1.0" encoding="utf-8"?>
<!-- Generator: Adobe Illustrator 25.2.0, SVG Export Plug-In . SVG Version: 6.00 Build 0)  -->
<svg version="1.1" id="圖層_1" xmlns="http://www.w3.org/2000/svg" xmlns:xlink="http://www.w3.org/1999/xlink" x="0px" y="0px"
	 viewBox="0 0 2338.2 72.2" style="enable-background:new 0 0 2338.2 72.2;" xml:space="preserve">
<style type="text/css">
	.st0{fill:#1F519B;}
</style>
<path class="st0" d="M47.4,17.2c-0.9-0.9-1.9-1.6-2.9-2.3c-1.4-1-2.9-1.8-4.5-2.4c-1.8-0.7-3.7-1.3-5.6-1.8c-2-0.5-4.1-0.7-6.2-0.7
	c-4.8,0-8.2,0.9-10.5,2.6c-2.2,1.7-3.4,4.4-3.3,7.2c-0.1,1.5,0.3,3,1,4.3c0.9,1.2,2,2.2,3.3,2.9c1.8,0.9,3.6,1.7,5.5,2.2l7.7,2
	c3.3,0.8,6.5,1.7,9.7,2.9c2.6,1,5.1,2.3,7.4,3.9c2,1.5,3.6,3.5,4.6,5.7c1.2,2.5,1.8,5.3,1.7,8.1c0.1,3.2-0.6,6.4-2.1,9.3
	c-1.3,2.6-3.2,4.8-5.6,6.4c-2.5,1.7-5.3,2.9-8.2,3.6c-3.3,0.7-6.7,1.1-10.1,1.1c-5.3,0-10.6-0.8-15.7-2.4C8.7,68.2,4.1,65.7,0,62.6
	L5.1,53c1.1,1.1,2.4,2.1,3.7,2.9c1.8,1.2,3.7,2.2,5.7,3c2.3,0.9,4.7,1.7,7.1,2.3c2.6,0.6,5.2,0.9,7.9,0.9c4.4,0,7.8-0.8,10.2-2.3
	c2.4-1.4,3.7-4,3.6-6.8c0-1.6-0.4-3.2-1.4-4.5c-1-1.3-2.3-2.3-3.8-3.1c-1.9-1-4-1.9-6.1-2.5l-8.2-2.3c-3.2-0.8-6.3-1.8-9.3-2.9
	c-2.4-0.9-4.5-2.2-6.5-3.8c-1.7-1.4-3.1-3.1-4-5.1c-0.9-2.3-1.4-4.7-1.3-7.2c-0.1-3.2,0.6-6.3,2-9.2c1.3-2.7,3.1-5,5.4-6.8
	c2.4-2,5.2-3.4,8.2-4.2C21.6,0.5,25.1,0,28.5,0c4.5,0,9,0.8,13.3,2.3c3.8,1.4,7.4,3.3,10.7,5.7L47.4,17.2z"/>
<path class="st0" d="M124.8,0.5v71h-11.3V40.2H77.7v31.3H66.5v-71h11.2v29.7h35.8V0.5H124.8z"/>
<path class="st0" d="M161.7,0.5h9.8l28,71h-11.8l-7.5-19.3h-27.4l-7.4,19.3h-11.9L161.7,0.5z M178,43.9l-11.4-30.5l-11.8,30.5H178z"
	/>
<path class="st0" d="M235.2,72c-4.8,0.1-9.6-1-13.9-3c-4-2-7.7-4.8-10.7-8.1c-3-3.4-5.4-7.4-7-11.6c-1.6-4.3-2.4-8.8-2.4-13.3
	c0-4.7,0.8-9.3,2.6-13.6c1.7-4.2,4.1-8.1,7.1-11.5c3.1-3.3,6.7-6,10.8-7.9c4.3-2,9-3.1,13.7-3c4.8,0,9.5,1.1,13.8,3.2
	c4.1,2,7.7,4.8,10.7,8.2c3,3.4,5.3,7.3,6.9,11.6c1.7,4.2,2.5,8.6,2.5,13.1c0,4.7-0.9,9.3-2.6,13.6c-1.7,4.2-4.1,8.1-7.1,11.5
	c-3.1,3.3-6.8,6-10.9,7.9C244.5,71,239.9,72,235.2,72z M212.6,36c0,3.3,0.5,6.6,1.6,9.7c1,3,2.5,5.8,4.5,8.3c2,2.4,4.4,4.4,7.2,5.8
	c2.9,1.4,6.1,2.2,9.4,2.1c3.3,0.1,6.6-0.7,9.5-2.2c2.8-1.5,5.2-3.5,7.1-6c1.9-2.5,3.4-5.3,4.4-8.3c1-3,1.5-6.2,1.5-9.4
	c0-3.3-0.6-6.6-1.6-9.7c-1-3-2.6-5.8-4.6-8.2c-1.9-2.4-4.3-4.3-7.1-5.7c-2.8-1.5-6-2.3-9.2-2.2c-3.3,0-6.6,0.7-9.6,2.3
	c-2.7,1.4-5.2,3.4-7.1,5.8c-2,2.5-3.5,5.3-4.5,8.3C213.1,29.6,212.6,32.8,212.6,36z"/>
<path class="st0" d="M340.6,71.5V20.4l-21.1,38.7h-6.2l-21.2-38.7v51.1h-11.2v-71h12l23.5,43.4l23.5-43.4h12v71L340.6,71.5z"/>
<path class="st0" d="M416.6,61.6v9.9h-48.7v-71h47.8v9.9h-36.6v20.2h31.7v9.3h-31.7v21.7H416.6z"/>
<path class="st0" d="M428.2,71.5v-71h11.2v71H428.2z"/>
<path class="st0" d="M522.1,17.2c-0.9-0.9-1.9-1.6-2.9-2.3c-1.4-1-2.9-1.8-4.5-2.4c-1.8-0.7-3.7-1.3-5.6-1.8c-2-0.5-4.1-0.7-6.2-0.7
	c-4.8,0-8.2,0.9-10.5,2.6c-2.2,1.7-3.4,4.4-3.3,7.2c-0.1,1.5,0.3,3,1,4.3c0.9,1.2,2,2.2,3.3,2.9c1.8,0.9,3.6,1.7,5.5,2.2l7.7,2
	c3.3,0.8,6.5,1.7,9.7,2.9c2.6,1,5.1,2.3,7.4,3.9c2,1.5,3.6,3.5,4.6,5.7c1.2,2.5,1.8,5.3,1.7,8.1c0.1,3.2-0.6,6.4-2.1,9.3
	c-1.3,2.6-3.2,4.8-5.6,6.4c-2.5,1.7-5.3,2.9-8.2,3.6c-3.3,0.7-6.7,1.1-10.1,1.1c-5.3,0-10.6-0.8-15.7-2.4c-4.9-1.6-9.5-4.1-13.6-7.2
	l5.1-9.6c1.1,1.1,2.4,2.1,3.7,2.9c1.8,1.2,3.7,2.2,5.7,3c2.3,0.9,4.7,1.7,7.1,2.3c2.6,0.6,5.2,0.9,7.9,0.9c4.4,0,7.8-0.8,10.2-2.3
	c2.4-1.4,3.7-4,3.6-6.8c0-1.6-0.4-3.2-1.4-4.5c-1-1.3-2.3-2.3-3.8-3.1c-1.9-1-4-1.9-6.1-2.5l-8.2-2.3c-3.2-0.8-6.3-1.8-9.3-2.9
	c-2.4-0.9-4.5-2.2-6.5-3.8c-1.7-1.4-3.1-3.1-4-5.1c-0.9-2.3-1.4-4.7-1.3-7.2c-0.1-3.2,0.6-6.3,2-9.2c1.3-2.7,3.1-5,5.4-6.8
	c2.4-2,5.2-3.4,8.2-4.2c3.3-0.9,6.8-1.4,10.2-1.4c4.5,0,9,0.8,13.3,2.3c3.8,1.4,7.4,3.3,10.7,5.7L522.1,17.2z"/>
<path class="st0" d="M599.5,0.5v71h-11.3V40.2h-35.8v31.3h-11.2v-71h11.2v29.7h35.8V0.5H599.5z"/>
<path class="st0" d="M636.4,0.5h9.8l28,71h-11.8l-7.5-19.3h-27.4l-7.4,19.3h-11.9L636.4,0.5z M652.7,43.9l-11.4-30.5l-11.8,30.5
	H652.7z"/>
<path class="st0" d="M709.9,72c-4.8,0.1-9.6-1-13.9-3c-4-2-7.7-4.8-10.7-8.1c-3-3.4-5.4-7.4-7-11.6c-1.6-4.3-2.4-8.8-2.4-13.3
	c0-4.7,0.8-9.3,2.6-13.6c1.7-4.2,4.1-8.1,7.1-11.5c3.1-3.3,6.7-6,10.8-7.9c4.3-2,9-3.1,13.7-3c4.8,0,9.5,1.1,13.8,3.2
	c4.1,2,7.7,4.8,10.7,8.2c3,3.4,5.3,7.3,6.9,11.6c1.7,4.2,2.5,8.6,2.5,13.1c0,4.7-0.9,9.3-2.6,13.6c-1.7,4.2-4.1,8.1-7.1,11.5
	c-3.1,3.3-6.8,6-10.9,7.9C719.2,71,714.6,72,709.9,72z M687.3,36c0,3.3,0.5,6.6,1.6,9.7c1,3,2.5,5.8,4.5,8.3c2,2.4,4.4,4.4,7.2,5.8
	c2.9,1.4,6.1,2.2,9.4,2.1c3.3,0.1,6.6-0.7,9.5-2.2c2.8-1.5,5.2-3.5,7.1-6c1.9-2.5,3.4-5.3,4.4-8.3c1-3,1.5-6.2,1.5-9.4
	c0-3.3-0.6-6.6-1.6-9.7c-1-3-2.6-5.8-4.6-8.2c-1.9-2.4-4.3-4.3-7.1-5.7c-2.8-1.5-6-2.3-9.2-2.2c-3.3,0-6.6,0.7-9.6,2.3
	c-2.7,1.4-5.2,3.4-7.1,5.8c-2,2.5-3.5,5.3-4.5,8.3C687.8,29.6,687.3,32.8,687.3,36L687.3,36z"/>
<path class="st0" d="M815.3,71.5V20.4l-21.1,38.7H788l-21.2-38.7v51.1h-11.2v-71h12l23.5,43.4l23.5-43.4h12v71L815.3,71.5z"/>
<path class="st0" d="M891.3,61.6v9.9h-48.7v-71h47.8v9.9h-36.6v20.2h31.7v9.3h-31.7v21.7H891.3z"/>
<path class="st0" d="M902.9,71.5v-71h11.2v71H902.9z"/>
<path class="st0" d="M996.8,17.2c-0.9-0.9-1.9-1.6-2.9-2.3c-1.4-1-2.9-1.8-4.5-2.4c-1.8-0.7-3.7-1.3-5.6-1.8c-2-0.5-4.1-0.7-6.2-0.7
	c-4.8,0-8.2,0.9-10.5,2.6c-2.2,1.7-3.4,4.4-3.3,7.2c-0.1,1.5,0.3,3,1,4.3c0.9,1.2,2,2.2,3.3,2.9c1.8,0.9,3.6,1.7,5.5,2.2l7.7,2
	c3.3,0.8,6.5,1.7,9.7,2.9c2.6,1,5.1,2.3,7.4,3.9c2,1.5,3.6,3.5,4.6,5.7c1.2,2.5,1.8,5.3,1.7,8.1c0.1,3.2-0.6,6.4-2.1,9.3
	c-1.3,2.6-3.2,4.8-5.6,6.4c-2.5,1.7-5.3,2.9-8.2,3.6c-3.3,0.7-6.7,1.1-10.1,1.1c-5.3,0-10.6-0.8-15.7-2.4c-4.9-1.6-9.5-4.1-13.6-7.2
	l5.1-9.6c1.1,1.1,2.4,2.1,3.7,2.9c1.8,1.2,3.7,2.2,5.7,3c2.3,0.9,4.7,1.7,7.1,2.3c2.6,0.6,5.2,0.9,7.9,0.9c4.4,0,7.8-0.8,10.2-2.3
	c2.4-1.4,3.7-4,3.6-6.8c0-1.6-0.4-3.2-1.4-4.5c-1-1.3-2.3-2.3-3.8-3.1c-1.9-1-4-1.9-6.1-2.5l-8.2-2.3c-3.2-0.8-6.3-1.8-9.3-2.9
	c-2.4-0.9-4.5-2.2-6.5-3.8c-1.7-1.4-3.1-3.1-4-5.1c-0.9-2.3-1.4-4.7-1.3-7.2c-0.1-3.2,0.6-6.3,2-9.2c1.3-2.7,3.1-5,5.4-6.8
	c2.4-2,5.2-3.4,8.2-4.2C971,0.5,974.5,0,977.9,0c4.5,0,9,0.8,13.3,2.3c3.8,1.4,7.4,3.3,10.7,5.7L996.8,17.2z"/>
<path class="st0" d="M1074.2,0.5v71h-11.3V40.2h-35.8v31.3h-11.2v-71h11.2v29.7h35.8V0.5H1074.2z"/>
<path class="st0" d="M1111.1,0.5h9.8l28,71h-11.8l-7.5-19.3h-27.4l-7.4,19.3h-11.9L1111.1,0.5z M1127.4,43.9L1116,13.4l-11.8,30.5
	H1127.4z"/>
<path class="st0" d="M1184.6,72c-4.8,0.1-9.6-1-13.9-3c-4-2-7.7-4.8-10.7-8.1c-3-3.4-5.4-7.4-7-11.6c-1.6-4.3-2.4-8.8-2.4-13.3
	c0-4.7,0.8-9.3,2.6-13.6c1.7-4.2,4.1-8.1,7.1-11.5c3.1-3.3,6.7-6,10.8-7.9c4.3-2,9-3.1,13.7-3c4.8,0,9.5,1.1,13.8,3.2
	c4.1,2,7.7,4.8,10.7,8.2c3,3.4,5.3,7.3,6.9,11.6c1.7,4.2,2.5,8.6,2.5,13.1c0,4.7-0.9,9.3-2.6,13.6c-1.7,4.2-4.1,8.1-7.1,11.5
	c-3.1,3.3-6.8,6-10.9,7.9C1193.9,71,1189.3,72,1184.6,72z M1162,36c0,3.3,0.5,6.6,1.6,9.7c1,3,2.5,5.8,4.5,8.3
	c2,2.4,4.4,4.4,7.2,5.8c2.9,1.4,6.1,2.2,9.4,2.1c3.3,0.1,6.6-0.7,9.5-2.2c2.8-1.5,5.2-3.5,7.1-6c1.9-2.5,3.4-5.3,4.4-8.3
	c1-3,1.5-6.2,1.5-9.4c0-3.3-0.6-6.6-1.6-9.7c-1-3-2.6-5.8-4.6-8.2c-1.9-2.4-4.3-4.3-7.1-5.7c-2.8-1.5-6-2.3-9.2-2.2
	c-3.3,0-6.6,0.7-9.6,2.3c-2.7,1.4-5.2,3.4-7.1,5.8c-2,2.5-3.5,5.3-4.5,8.3C1162.5,29.6,1162,32.8,1162,36z"/>
<path class="st0" d="M1290,71.5V20.4l-21.1,38.7h-6.2l-21.2-38.7v51.1h-11.2v-71h12l23.5,43.4l23.5-43.4h12v71L1290,71.5z"/>
<path class="st0" d="M1366,61.6v9.9h-48.7v-71h47.8v9.9h-36.6v20.2h31.7v9.3h-31.7v21.7H1366z"/>
<path class="st0" d="M1377.6,71.5v-71h11.2v71H1377.6z"/>
<path class="st0" d="M1471.5,17.2c-0.9-0.9-1.9-1.6-2.9-2.3c-1.4-1-2.9-1.8-4.5-2.4c-1.8-0.7-3.7-1.3-5.6-1.8
	c-2-0.5-4.1-0.7-6.2-0.7c-4.8,0-8.2,0.9-10.5,2.6c-2.2,1.7-3.4,4.4-3.3,7.2c-0.1,1.5,0.3,3,1,4.3c0.9,1.2,2,2.2,3.3,2.9
	c1.8,0.9,3.6,1.7,5.5,2.2l7.7,2c3.3,0.8,6.5,1.7,9.7,2.9c2.6,1,5.1,2.3,7.4,3.9c2,1.5,3.6,3.5,4.6,5.7c1.2,2.5,1.8,5.3,1.7,8.1
	c0.1,3.2-0.6,6.4-2.1,9.3c-1.3,2.6-3.2,4.8-5.6,6.4c-2.5,1.7-5.3,2.9-8.2,3.6c-3.3,0.7-6.7,1.1-10.1,1.1c-5.3,0-10.6-0.8-15.7-2.4
	c-4.9-1.6-9.5-4.1-13.6-7.2l5.1-9.6c1.1,1.1,2.4,2.1,3.7,2.9c1.8,1.2,3.7,2.2,5.7,3c2.3,0.9,4.7,1.7,7.1,2.3
	c2.6,0.6,5.2,0.9,7.9,0.9c4.4,0,7.8-0.8,10.2-2.3c2.4-1.4,3.7-4,3.6-6.8c0-1.6-0.4-3.2-1.4-4.5c-1-1.3-2.3-2.3-3.8-3.1
	c-1.9-1-4-1.9-6.1-2.5l-8.2-2.3c-3.2-0.8-6.3-1.8-9.3-2.9c-2.4-0.9-4.5-2.2-6.5-3.8c-1.7-1.4-3.1-3.1-4-5.1
	c-0.9-2.3-1.4-4.7-1.3-7.2c-0.1-3.2,0.6-6.3,2-9.2c1.3-2.7,3.1-5,5.4-6.8c2.4-2,5.2-3.4,8.2-4.2c3.3-0.9,6.8-1.4,10.2-1.4
	c4.5,0,9,0.8,13.3,2.3c3.8,1.4,7.4,3.3,10.7,5.7L1471.5,17.2z"/>
<path class="st0" d="M1548.9,0.5v71h-11.3V40.2h-35.8v31.3h-11.2v-71h11.2v29.7h35.8V0.5H1548.9z"/>
<path class="st0" d="M1585.8,0.5h9.8l28,71h-11.8l-7.5-19.3h-27.4l-7.4,19.3h-11.9L1585.8,0.5z M1602.1,43.9l-11.4-30.5l-11.8,30.5
	H1602.1z"/>
<path class="st0" d="M1659.3,72c-4.8,0.1-9.6-1-13.9-3c-4-2-7.7-4.8-10.7-8.1c-3-3.4-5.4-7.4-7-11.6c-1.6-4.3-2.4-8.8-2.4-13.3
	c0-4.7,0.8-9.3,2.6-13.6c1.7-4.2,4.1-8.1,7.1-11.5c3.1-3.3,6.7-6,10.8-7.9c4.3-2,9-3.1,13.7-3c4.8,0,9.5,1.1,13.8,3.2
	c4.1,2,7.7,4.8,10.7,8.2c3,3.4,5.3,7.3,6.9,11.6c1.7,4.2,2.5,8.6,2.5,13.1c0,4.7-0.9,9.3-2.6,13.6c-1.7,4.2-4.1,8.1-7.1,11.5
	c-3.1,3.3-6.8,6-10.9,7.9C1668.6,71,1664,72,1659.3,72z M1636.7,36c0,3.3,0.5,6.6,1.6,9.7c1,3,2.5,5.8,4.5,8.3
	c2,2.4,4.4,4.4,7.2,5.8c2.9,1.4,6.1,2.2,9.4,2.1c3.3,0.1,6.6-0.7,9.5-2.2c2.8-1.5,5.2-3.5,7.1-6c1.9-2.5,3.4-5.3,4.4-8.3
	c1-3,1.5-6.2,1.5-9.4c0-3.3-0.6-6.6-1.6-9.7c-1-3-2.6-5.8-4.6-8.2c-1.9-2.4-4.3-4.3-7.1-5.7c-2.8-1.5-6-2.3-9.2-2.2
	c-3.3,0-6.6,0.7-9.6,2.3c-2.7,1.4-5.2,3.4-7.1,5.8c-2,2.5-3.5,5.3-4.5,8.3C1637.2,29.6,1636.7,32.8,1636.7,36z"/>
<path class="st0" d="M1764.7,71.5V20.4l-21.1,38.7h-6.2l-21.2-38.7v51.1H1705v-71h12l23.5,43.4L1764,0.5h12v71L1764.7,71.5z"/>
<path class="st0" d="M1840.7,61.6v9.9H1792v-71h47.8v9.9h-36.6v20.2h31.7v9.3h-31.7v21.7H1840.7z"/>
<path class="st0" d="M1852.3,71.5v-71h11.2v71H1852.3z"/>
<path class="st0" d="M1946.2,17.2c-0.9-0.9-1.9-1.6-2.9-2.3c-1.4-1-2.9-1.8-4.5-2.4c-1.8-0.7-3.7-1.3-5.6-1.8
	c-2-0.5-4.1-0.7-6.2-0.7c-4.8,0-8.3,0.9-10.5,2.6c-2.2,1.7-3.4,4.4-3.3,7.2c-0.1,1.5,0.3,3,1,4.3c0.9,1.2,2,2.2,3.3,2.9
	c1.8,0.9,3.6,1.7,5.5,2.2l7.7,2c3.3,0.8,6.5,1.7,9.7,2.9c2.6,1,5.1,2.3,7.4,3.9c2,1.5,3.6,3.5,4.6,5.7c1.2,2.5,1.8,5.3,1.7,8.1
	c0.1,3.2-0.6,6.4-2.1,9.3c-1.3,2.5-3.3,4.7-5.6,6.4c-2.5,1.7-5.3,2.9-8.2,3.6c-3.3,0.7-6.7,1.1-10.1,1.1c-5.3,0-10.6-0.8-15.7-2.4
	c-4.9-1.6-9.5-4.1-13.6-7.2l5.1-9.6c1.1,1.1,2.4,2.1,3.7,2.9c1.8,1.2,3.7,2.2,5.7,3c2.3,0.9,4.7,1.7,7.1,2.3
	c2.6,0.6,5.2,0.9,7.9,0.9c4.4,0,7.8-0.8,10.2-2.3c2.4-1.4,3.7-4,3.6-6.8c0-1.6-0.4-3.2-1.4-4.5c-1-1.3-2.3-2.3-3.8-3.1
	c-1.9-1-4-1.9-6.1-2.5l-8.2-2.3c-3.2-0.8-6.3-1.7-9.3-2.9c-2.4-0.9-4.5-2.2-6.5-3.8c-1.7-1.4-3.1-3.1-4-5.1
	c-0.9-2.3-1.4-4.7-1.3-7.2c-0.1-3.2,0.6-6.3,2-9.2c1.3-2.7,3.1-5,5.4-6.8c2.4-2,5.2-3.4,8.2-4.2c3.3-0.9,6.8-1.4,10.2-1.4
	c4.5,0,9,0.8,13.3,2.3c3.8,1.4,7.4,3.3,10.7,5.7L1946.2,17.2z"/>
<path class="st0" d="M2023.6,0.5v71h-11.3V40.2h-35.8v31.3h-11.2v-71h11.2v29.7h35.8V0.5H2023.6z"/>
<path class="st0" d="M2060.5,0.5h9.8l28,71h-11.8l-7.5-19.3h-27.4l-7.4,19.3h-11.9L2060.5,0.5z M2076.8,43.9l-11.4-30.5l-11.8,30.5
	H2076.8z"/>
<path class="st0" d="M2134,72c-4.8,0.1-9.6-1-13.9-3c-4-2-7.7-4.8-10.7-8.1c-3-3.4-5.4-7.3-7-11.6c-1.6-4.3-2.4-8.8-2.4-13.3
	c0-4.7,0.8-9.3,2.6-13.6c1.7-4.2,4.1-8.1,7.1-11.5c3-3.3,6.7-6,10.8-7.9c4.3-2,9-3.1,13.7-3c4.8,0,9.5,1.1,13.8,3.2
	c4.1,2,7.7,4.8,10.7,8.2c9.3,10.5,11.9,25.3,6.8,38.3c-1.7,4.2-4.1,8.1-7.1,11.5c-3.1,3.3-6.8,6-10.9,7.9
	C2143.3,71,2138.7,72,2134,72z M2111.4,36c0,3.3,0.5,6.6,1.6,9.7c1,3,2.5,5.8,4.5,8.3c2,2.4,4.4,4.4,7.2,5.8
	c2.9,1.4,6.1,2.2,9.4,2.1c3.3,0.1,6.6-0.7,9.5-2.2c2.8-1.5,5.2-3.5,7.1-6c1.9-2.5,3.4-5.3,4.4-8.3c1-3,1.5-6.2,1.5-9.4
	c0-3.3-0.6-6.6-1.6-9.7c-1-3-2.6-5.8-4.6-8.2c-1.9-2.4-4.4-4.3-7.1-5.7c-2.8-1.5-6-2.3-9.2-2.2c-3.3,0-6.6,0.7-9.6,2.3
	c-2.7,1.4-5.2,3.4-7.1,5.8c-2,2.5-3.5,5.3-4.5,8.3C2111.9,29.6,2111.4,32.8,2111.4,36z"/>
<path class="st0" d="M2239.4,71.5V20.4l-21.1,38.7h-6.2l-21.2-38.7v51.1h-11.2v-71h12l23.5,43.4l23.5-43.4h12v71H2239.4z"/>
<path class="st0" d="M2315.4,61.6v9.9h-48.7v-71h47.8v9.9h-36.6v20.2h31.7v9.3h-31.7v21.7H2315.4z"/>
<path class="st0" d="M2327,71.5v-71h11.2v71H2327z"/>
</svg>
