<svg enable-background="new 0 0 2400 70" height="70" viewBox="0 0 2400 70" width="2400" xmlns="http://www.w3.org/2000/svg"><path clip-rule="evenodd" d="m27.5 66.3h26.2l-.3-.6-3.4-.3c-5.2-.4-5.8-.7-5.8-1.4v-22.8l10.3-10.2 15.5 26.2c3.1 5.4 3.3 8-1.4 8.3l-2.9.2-.3.6h25.5l-.3-.6-2.3-.2c-4.3-.4-4.7-.7-9-7.7l-19.6-32.2 1.5-1.5c18.4-18.8 17.5-19 25.2-19.6l1.2-.1.3-.6h-24.4l.2.6 3.9.3c9 .7 9.1 2.2-7 18.5l-16.4 16.6v-33.4c0-.6 1.3-1.3 4.8-1.6l4.5-.4.3-.6h-26.2l.3.6 2.7.3c5.2.4 5.6.7 5.6 1.4v57.6c0 .6-1.1 1.3-4.6 1.6l-3.8.4zm104.4-27.3 6.6 19.8c1.5 4.7-.1 6.6-4.1 6.8l-3.2.2-.3.6h26.2l-.3-.6-2.8-.2c-4.7-.3-5.6-1.8-8.3-9.7l-18.2-53.1h-.9c-.9 2.4-2.7 4.3-5.1 5.2l1 2.8-12.4 34.5c-6.7 18.3-7.5 19.5-13.7 20.3l-1.6.2-.3.6h21.7l-.3-.6-2.1-.2c-9.1-.8-9.1-2.2-5.3-13.1l4.8-13.5zm-18.1-1 9.2-25.6h.1s8.6 25.6 8.5 25.6zm50.1 28.3h26.2l-.3-.6-3.4-.3c-5.2-.4-5.8-.7-5.8-1.4v-22.8l10.2-10.2 15.5 26.2c3.1 5.4 3.3 8-1.4 8.3l-2.9.2-.3.6h25.5l-.3-.6-2.3-.2c-4.3-.4-4.7-.7-9-7.7l-19.5-32.2 1.5-1.5c18.4-18.8 17.5-19 25.2-19.6l1.2-.1.3-.6h-24.4l.2.6 3.9.3c9 .7 9.1 2.2-7 18.5l-16.4 16.6v-33.4c0-.6 1.3-1.3 4.8-1.6l4.5-.4.3-.6h-26.2l.3.6 2.7.3c5.2.4 5.6.7 5.6 1.4v57.6c0 .6-1.1 1.3-4.6 1.6l-3.8.4zm102.3 1.5c15.8 0 22.6-9.5 22.7-26l.2-33.8c0-1.9 2.6-3.1 6.9-3.5l2-.2.3-.6h-21.5l.3.6 1.9.2c6.1.6 9 1.9 9 3.3l.1 33.6c0 15.6-6.7 23-18.7 23-13.4 0-19.5-6.4-19.5-20.9v-37.1c0-.6 1.3-1.4 4.8-1.7l5-.4.3-.6h-28.1l.3.6 3.9.3c5.2.4 5.8.8 5.8 1.5v38.7c0 16.4 7.2 23 24.3 23zm59 0c12.8 0 21.9-9.5 21.9-19.6 0-10.9-8.2-15.7-18.3-19.2-8.2-2.9-14.5-6.1-14.5-13.8 0-6.8 5.3-11.8 12.7-11.8 3.7-.1 7.3 1.2 10.1 3.5l6.6 12h.6l-.9-15.3-4 1.2c-3.9-1.5-8.1-2.3-12.3-2.3-11.6 0-18.8 8-18.8 17 0 9.7 7.7 14.1 16.5 17 9.9 3.2 15.6 7.4 15.6 15.7 0 8.5-6.1 14.6-15.1 14.6-8 0-13.6-3.5-17.1-11.8l-2.1-4.9h-.6l1 14.2c6.1 2 12.5 3.3 18.7 3.5zm31.4-1.5h25.7l-.3-.6-2.9-.3c-5.2-.4-5.8-.7-5.8-1.4v-29h33.7v28.7c0 .6-1.3 1.3-4.8 1.6l-4 .4-.3.6h25.7l-.3-.6-2.5-.3c-5.2-.4-5.8-.7-5.8-1.4v-57.6c0-.6 1.3-1.3 4.8-1.6l3.6-.4.3-.6h-25.7l.3.6 2.9.3c5.2.4 5.8.7 5.8 1.4v27.9h-33.7v-27.6c0-.6 1.3-1.3 4.8-1.6l4-.4.3-.6h-25.7l.3.6 2.5.3c5.2.4 5.8.7 5.8 1.4v57.6c0 .6-1.3 1.3-4.8 1.6l-3.6.4zm76.5 0h26.1l-.3-.6-2.9-.3c-5.2-.4-5.8-.7-5.8-1.4v-57.6c0-.6 1.3-1.3 4.8-1.6l4-.4.3-.6h-26.1l.3.6 2.9.3c5.2.4 5.8.7 5.8 1.4v57.6c0 .6-1.3 1.3-4.8 1.6l-4 .4zm70.3 1.5c8.3 0 20.4-3.3 27.9-6.1l-.1-.4-5.6.6v-20.1c0-.6 1.3-1.3 4.8-1.6l3.6-.4.3-.6h-26.7l.3.6 3.9.3c5.2.3 6.1.7 6.1 1.4v21.7c-2.7 2.1-8.3 3.5-13.5 3.5-14.8 0-26.5-12.7-26.5-31.8 0-17.4 9.7-31.5 26.2-31.5 6.7 0 11.9 1.8 14.5 3.9l7.6 15h.6l-.4-18.2-5.1 2.4c-5.2-2.7-11-4.2-16.9-4.2-21.1 0-35.3 14.2-35.3 33.4-.1 19.3 14.4 32.1 34.3 32.1zm70.6 0c15.8 0 22.6-9.5 22.7-26l.1-33.8c0-1.9 2.6-3.1 6.9-3.5l2-.2.3-.6h-21.5l.3.6 1.9.2c6.1.6 9 1.9 9 3.3l.1 33.6c0 15.6-6.7 23-18.7 23-13.4 0-19.5-6.4-19.5-20.9v-37.1c0-.6 1.3-1.4 4.8-1.7l5-.4.3-.6h-28.1l.3.6 3.9.3c5.2.4 5.8.8 5.8 1.5v38.7c-.1 16.4 7.2 23 24.4 23zm36.5-1.5h28.1l-.3-.6-3.9-.3c-2.3-.2-5.8-.7-5.8-1.4v-30.6c2.6.9 5.3 1.6 8 2l18.4 29.6.7 1.3h16.4l-.4-.6-1.3-.1c-4.9-.3-6.8-1.8-10.9-7.9l-14.5-22.2c8.9-1.8 15.6-8 15.6-15.6 0-10.3-8.5-16-24.2-16h-25.7l.3.6 3.9.3c5.2.4 5.8.7 5.8 1.4v57.6c0 .6-2.8 1.4-4.8 1.6l-5 .4zm27.2-32.1c-3.1 0-6.1-.6-9-1.6v-27.5l5-.2c12-.5 18.4 5.5 18.4 14.8-.1 9.2-5.6 14.5-14.4 14.5zm75.3 4.8 6.6 19.8c1.5 4.7-.1 6.6-4.1 6.8l-3.2.2-.3.6h26.2l-.3-.6-2.8-.2c-4.7-.3-5.6-1.8-8.3-9.7l-18.1-53.1h-.9c-.9 2.4-2.7 4.3-5.1 5.2l1 2.8-12.4 34.5c-6.7 18.3-7.5 19.5-13.7 20.3l-1.6.2-.3.6h21.7l-.3-.6-2.1-.2c-9.1-.8-9.1-2.2-5.3-13.1l4.8-13.5zm-18.2-1 9.2-25.6h.1s8.6 25.6 8.5 25.6zm72.2 28.3h25.7l-.3-.6-2.9-.3c-5.2-.4-5.8-.7-5.8-1.4v-29h33.7v28.7c0 .6-1.3 1.3-4.8 1.6l-4 .4-.3.6h25.7l-.3-.6-2.5-.3c-5.2-.4-5.8-.7-5.8-1.4v-57.6c0-.6 1.3-1.3 4.8-1.6l3.6-.4.3-.6h-25.7l.3.6 2.9.3c5.2.4 5.8.7 5.8 1.4v27.9h-33.7v-27.6c0-.6 1.3-1.3 4.8-1.6l4-.4.3-.6h-25.8l.3.6 2.5.3c5.2.4 5.8.7 5.8 1.4v57.6c0 .6-1.3 1.3-4.8 1.6l-3.6.4zm76.5 0h26.1l-.3-.6-2.9-.3c-5.2-.4-5.8-.7-5.8-1.4v-57.6c0-.6 1.3-1.3 4.8-1.6l4-.4.3-.6h-26.1l.3.6 2.9.3c5.2.4 5.8.7 5.8 1.4v57.6c0 .6-1.3 1.3-4.8 1.6l-4 .4zm56.5 1.5c12.8 0 21.9-9.5 21.9-19.6 0-10.9-8.2-15.7-18.3-19.2-8.2-2.9-14.5-6.1-14.5-13.8 0-6.8 5.3-11.8 12.7-11.8 3.7-.1 7.3 1.2 10.1 3.5l6.6 12h.6l-.9-15.3-4 1.2c-3.9-1.5-8.1-2.3-12.3-2.3-11.6 0-18.8 8-18.8 17 0 9.7 7.7 14.1 16.5 17 9.9 3.2 15.6 7.4 15.6 15.7 0 8.5-6.1 14.6-15.1 14.6-8 0-13.6-3.5-17.1-11.8l-2-5h-.6l1 14.2c6.1 2.1 12.4 3.4 18.6 3.6zm46.5-1.5h28.1l-.3-.6-3.9-.3c-5.2-.4-5.8-.7-5.8-1.4v-59.2h6.3c7.8.4 12.4 4.6 16.8 14.4l.6 1.3h.6l-3-16.6h-49.7l-4.1 16.6h.7l.7-1.3c3.8-7.1 9-13.8 16.7-14.4h6.4v59c0 .6-1.3 1.3-4.8 1.6l-5 .4zm85.3 1.5c17.7 0 33.2-15.3 33.2-32.6 0-19.4-14.1-32.8-33-32.8-17.6 0-33.1 15.7-33.1 32.9.1 19.2 14.1 32.5 32.9 32.5zm.4-1.1c-14.4 0-24.5-12.8-24.5-31.3 0-19.6 9.4-32 24-32 14.2 0 24.5 13.1 24.5 31.7 0 19.4-9.1 31.6-24 31.6zm40.6-.4h28.1l-.3-.6-3.9-.3c-2.3-.2-5.8-.7-5.8-1.4v-30.6c2.6.9 5.3 1.6 8 2l18.4 29.6.7 1.3h16.4l-.4-.6-1.3-.1c-4.9-.3-6.8-1.8-10.9-7.9l-14.6-22.3c8.9-1.8 15.6-8 15.6-15.6 0-10.3-8.5-16-24.2-16h-25.7l.3.6 3.9.3c5.2.4 5.8.7 5.8 1.4v57.6c0 .6-2.8 1.4-4.8 1.6l-5 .4zm27-32.1c-3.1 0-6.1-.6-9-1.6v-27.5l5-.2c12-.5 18.4 5.5 18.4 14.8 0 9.2-5.5 14.5-14.4 14.5zm54.9 32.1h28.1l-.3-.6-3.9-.3c-5.2-.4-5.8-.7-5.8-1.4v-27.2l10.3-19.3c5.9-11.4 7.7-12.5 12.8-12.9l2.2-.2.3-.6h-22l.3.6 2.5.2c7.8.9 7.9 3 2.5 13.3l-9.4 17.8h-.2l-13.6-24.1c-2.9-5.3-2.8-6.9 2.5-7.1l3-.1.3-.6h-26.4l.3.6 2.8.2c4.6.3 6 2.1 9 7.5l14.8 26.1v25.5c0 .6-1.3 1.3-4.8 1.6l-5 .4zm73 0h26.2l-.3-.6-3.4-.3c-5.2-.4-5.8-.7-5.8-1.4v-22.8l10.2-10.2 15.5 26.2c3.1 5.4 3.3 8-1.4 8.3l-2.9.2-.3.6h25.5l-.3-.6-2.3-.2c-4.3-.4-4.7-.7-9-7.7l-19.5-32.2 1.5-1.5c18.4-18.8 17.5-19 25.2-19.6l1.2-.1.3-.6h-24.4l.2.6 3.9.3c9 .7 9.1 2.2-7 18.5l-16.4 16.6v-33.4c0-.6 1.3-1.3 4.8-1.6l4.5-.4.3-.6h-26.2l.3.6 2.7.3c5.2.4 5.6.7 5.6 1.4v57.6c0 .6-1.1 1.3-4.6 1.6l-3.8.4zm104.4-27.3 6.6 19.8c1.5 4.7-.1 6.6-4.1 6.8l-3.2.2-.3.6h26.2l-.3-.6-2.8-.2c-4.7-.3-5.6-1.8-8.3-9.7l-18.2-53.1h-.9c-.9 2.4-2.7 4.3-5.1 5.2l1 2.8-12.4 34.5c-6.7 18.3-7.5 19.5-13.7 20.3l-1.6.2-.3.6h21.7l-.3-.6-2.1-.2c-9.1-.8-9.1-2.2-5.3-13.1l4.8-13.5zm-18.3-1 9.2-25.6h.1s8.6 25.6 8.5 25.6zm50.1 28.3h26.2l-.3-.6-3.4-.3c-5.2-.4-5.8-.7-5.8-1.4v-22.8l10.2-10.2 15.5 26.2c3.1 5.4 3.3 8-1.4 8.3l-2.9.2-.3.6h25.5l-.3-.6-2.3-.2c-4.3-.4-4.7-.7-9-7.7l-19.5-32.2 1.5-1.5c18.4-18.8 17.5-19 25.2-19.6l1.2-.1.3-.6h-24.4l.2.6 3.9.3c9 .7 9.1 2.2-7 18.5l-16.4 16.6v-33.4c0-.6 1.3-1.3 4.8-1.6l4.5-.4.3-.6h-26.2l.3.6 2.7.3c5.2.4 5.6.7 5.6 1.4v57.6c0 .6-1.1 1.3-4.6 1.6l-3.8.4zm102.4 1.5c15.8 0 22.6-9.5 22.7-26l.1-33.7c0-1.9 2.6-3.1 6.9-3.5l2-.2.3-.6h-21.5l.3.6 1.9.2c6.1.6 9 1.9 9 3.3l.1 33.6c0 15.6-6.7 23-18.7 23-13.4 0-19.5-6.4-19.5-20.9v-37.2c0-.6 1.3-1.4 4.8-1.7l5-.4.3-.6h-28l.3.6 3.9.3c5.2.4 5.8.8 5.8 1.5v38.7c-.1 16.4 7.2 23 24.3 23zm59 0c12.8 0 21.9-9.5 21.9-19.6 0-10.9-8.2-15.7-18.3-19.2-8.2-2.9-14.5-6.1-14.5-13.8 0-6.8 5.3-11.8 12.7-11.8 3.7-.1 7.3 1.2 10.1 3.5l6.6 12h.6l-.9-15.3-4 1.2c-3.9-1.5-8.1-2.3-12.3-2.3-11.6 0-18.8 8-18.8 17 0 9.7 7.7 14.1 16.5 17 9.9 3.2 15.6 7.4 15.6 15.7 0 8.5-6.1 14.6-15.1 14.6-8 0-13.6-3.5-17.1-11.8l-2.1-4.9h-.6l1 14.2c6.1 2 12.3 3.3 18.7 3.5zm31.5-1.5h25.7l-.3-.6-2.9-.3c-5.2-.4-5.8-.7-5.8-1.4v-29h33.7v28.7c0 .6-1.3 1.3-4.8 1.6l-4 .4-.3.6h25.7l-.3-.6-2.5-.3c-5.2-.4-5.8-.7-5.8-1.4v-57.6c0-.6 1.3-1.3 4.8-1.6l3.6-.4.3-.6h-25.7l.3.6 2.9.3c5.2.4 5.8.7 5.8 1.4v27.9h-33.7v-27.6c0-.6 1.3-1.3 4.8-1.6l4-.4.3-.6h-25.7l.3.6 2.5.3c5.2.4 5.8.7 5.8 1.4v57.6c0 .6-1.3 1.3-4.8 1.6l-3.6.4zm76.4 0h26.1l-.3-.6-2.9-.3c-5.2-.4-5.8-.7-5.8-1.4v-57.6c0-.6 1.3-1.3 4.8-1.6l4-.4.3-.6h-26.1l.3.6 2.9.3c5.2.4 5.8.7 5.8 1.4v57.6c0 .6-1.3 1.3-4.8 1.6l-4 .4zm70.2 1.5c8.3 0 20.4-3.3 27.9-6.1l-.1-.4-5.6.6v-20.1c0-.6 1.3-1.3 4.8-1.6l3.6-.4.3-.6h-26.7l.3.6 3.9.3c5.2.3 6.1.7 6.1 1.4v21.7c-2.7 2.1-8.3 3.5-13.5 3.5-14.8 0-26.5-12.7-26.5-31.8 0-17.4 9.7-31.5 26.2-31.5 6.7 0 11.9 1.8 14.5 3.9l7.6 15h.6l-.4-18.2-5.1 2.4c-5.2-2.7-11-4.2-16.9-4.2-21.1 0-35.3 14.2-35.3 33.4.1 19.3 14.5 32.1 34.3 32.1zm70.7 0c15.8 0 22.6-9.5 22.7-26l.1-33.7c0-1.9 2.6-3.1 6.9-3.5l2-.2.3-.6h-21.5l.3.6 1.9.2c6.1.6 9 1.9 9 3.3l.1 33.6c0 15.6-6.7 23-18.7 23-13.4 0-19.5-6.4-19.5-20.9v-37.2c0-.6 1.3-1.4 4.8-1.7l5-.4.3-.6h-28.1l.3.6 3.9.3c5.2.4 5.8.8 5.8 1.5v38.7c0 16.4 7.1 23 24.4 23zm36.6-1.5h28.1l-.3-.6-3.9-.3c-2.3-.2-5.8-.7-5.8-1.4v-30.6c2.6.9 5.3 1.6 8 2l18.4 29.6.7 1.3h16.4l-.4-.6-1.3-.1c-4.9-.3-6.8-1.8-10.9-7.9l-14.7-22.2c8.9-1.8 15.6-8 15.6-15.6 0-10.3-8.5-16-24.2-16h-25.7l.3.6 3.9.3c5.2.4 5.8.7 5.8 1.4v57.6c0 .6-2.8 1.4-4.8 1.6l-5 .4zm27.1-32.1c-3.1 0-6.1-.6-9-1.6v-27.5l5-.2c12-.5 18.4 5.5 18.4 14.8 0 9.2-5.6 14.5-14.4 14.5zm75.4 4.8 6.6 19.8c1.5 4.7-.1 6.6-4.1 6.8l-3.2.2-.3.6h26.2l-.3-.6-2.8-.2c-4.7-.3-5.6-1.8-8.3-9.7l-18.2-53.1h-.9c-.9 2.4-2.7 4.3-5.1 5.2l1 2.8-12.4 34.5c-6.7 18.3-7.5 19.5-13.7 20.3l-1.6.2-.3.6h21.7l-.3-.6-2.1-.2c-9.1-.8-9.1-2.2-5.3-13.1l4.8-13.5zm-18.3-1 9.2-25.6h.1s8.6 25.6 8.5 25.6zm72.2 28.3h25.7l-.3-.6-2.9-.3c-5.2-.4-5.8-.7-5.8-1.4v-29h33.7v28.7c0 .6-1.3 1.3-4.8 1.6l-4 .4-.3.6h25.7l-.3-.6-2.5-.3c-5.2-.4-5.8-.7-5.8-1.4v-57.6c0-.6 1.3-1.3 4.8-1.6l3.6-.4.3-.6h-25.7l.3.6 2.9.3c5.2.4 5.8.7 5.8 1.4v27.9h-33.7v-27.6c0-.6 1.3-1.3 4.8-1.6l4-.4.3-.6h-25.7l.3.6 2.5.3c5.2.4 5.8.7 5.8 1.4v57.6c0 .6-1.3 1.3-4.8 1.6l-3.6.4zm76.5 0h26.1l-.3-.6-2.9-.3c-5.2-.4-5.8-.7-5.8-1.4v-57.6c0-.6 1.3-1.3 4.8-1.6l4-.4.3-.6h-26.1l.3.6 2.9.3c5.2.4 5.8.7 5.8 1.4v57.6c0 .6-1.3 1.3-4.8 1.6l-4 .4zm56.5 1.5c12.8 0 21.9-9.5 21.9-19.6 0-10.9-8.2-15.7-18.3-19.2-8.2-2.9-14.5-6.1-14.5-13.8 0-6.8 5.3-11.8 12.7-11.8 3.7-.1 7.3 1.2 10.1 3.5l6.6 12h.6l-.9-15.3-4 1.2c-3.9-1.5-8.1-2.3-12.3-2.3-11.6 0-18.8 8-18.8 17 0 9.7 7.7 14.1 16.5 17 9.9 3.2 15.6 7.4 15.6 15.7 0 8.5-6.1 14.6-15.1 14.6-8 0-13.6-3.5-17.1-11.8l-2.1-5h-.6l1 14.2c6 2.1 12.4 3.4 18.7 3.6zm46.5-1.5h28.1l-.3-.6-3.9-.3c-5.2-.4-5.8-.7-5.8-1.4v-59.2h6.3c7.8.4 12.4 4.6 16.8 14.4l.6 1.3h.6l-3-16.6h-49.7l-4.1 16.6h.7l.7-1.3c3.8-7.1 9-13.8 16.7-14.4h6.4v59c0 .6-1.3 1.3-4.8 1.6l-5 .4zm85.3 1.5c17.7 0 33.2-15.3 33.2-32.6 0-19.4-14.1-32.8-33-32.8-17.6 0-33.1 15.7-33.1 32.9.1 19.2 14.1 32.5 32.9 32.5zm.5-1.1c-14.4 0-24.5-12.8-24.5-31.3 0-19.6 9.4-32 24-32 14.2 0 24.5 13.1 24.5 31.7 0 19.4-9.3 31.6-24 31.6zm40.5-.4h28.1l-.3-.6-3.9-.3c-2.3-.2-5.8-.7-5.8-1.4v-30.6c2.6.9 5.3 1.6 8 2l18.4 29.6.7 1.3h16.4l-.4-.6-1.3-.1c-4.9-.3-6.8-1.8-10.9-7.9l-14.6-22.3c8.9-1.8 15.6-8 15.6-15.6 0-10.3-8.5-16-24.2-16h-25.7l.3.6 3.9.3c5.2.4 5.8.7 5.8 1.4v57.6c0 .6-2.8 1.4-4.8 1.6l-5 .4zm27-32.1c-3.1 0-6.1-.6-9-1.6v-27.5l5-.2c12-.5 18.4 5.5 18.4 14.8.1 9.2-5.5 14.5-14.4 14.5zm54.9 32.1h28.1l-.3-.6-3.9-.3c-5.2-.4-5.8-.7-5.8-1.4v-27.2l10.3-19.3c5.9-11.4 7.7-12.5 12.8-12.9l2.2-.2.3-.6h-22l.3.6 2.5.2c7.8.9 7.9 3 2.5 13.3l-9.4 17.8h-.2l-13.6-24.1c-2.9-5.3-2.8-6.9 2.5-7.1l3-.1.3-.6h-26.4l.3.6 2.8.2c4.6.3 6 2.1 9 7.5l14.8 26.1v25.5c0 .6-1.3 1.3-4.8 1.6l-5 .4z" fill="#5686ed" fill-rule="evenodd"/></svg>