<svg id="圖層_1" data-name="圖層 1" xmlns="http://www.w3.org/2000/svg" viewBox="0 0 863.2 908.3"><defs><style>.cls-1{fill:#e60014;}</style></defs><path class="cls-1" d="M1024.5,992.5a432.9,432.9,0,0,1-306.7-127l2.1-2.1c81.4,81.3,189.6,126.1,304.6,126.1,237.7,0,431-193.3,431-431s-193.3-431-431-431c-115.1,0-223.4,44.8-304.8,126.2l-2.1-2.1a434.1,434.1,0,1,1,306.9,740.9Z" transform="translate(-654 -103.1)"/><circle class="cls-1" cx="65" cy="149.9" r="7"/><circle class="cls-1" cx="65" cy="149.9" r="7"/><circle class="cls-1" cx="259" cy="38.9" r="7"/><circle class="cls-1" cx="257" cy="38.9" r="7"/><circle class="cls-1" cx="483.5" cy="38.9" r="7"/><circle class="cls-1" cx="676.5" cy="149.9" r="7"/><circle class="cls-1" cx="789" cy="343.9" r="7"/><circle class="cls-1" cx="789" cy="566.9" r="7"/><circle class="cls-1" cx="676.5" cy="759.9" r="7"/><circle class="cls-1" cx="483.5" cy="872.4" r="7"/><circle class="cls-1" cx="257" cy="872.4" r="7"/><circle class="cls-1" cx="65" cy="759.9" r="7"/><path class="cls-1" d="M662.2,232.5v2.6h-7.8v-2.6H657v-4.6l-.5.5-.8.4-.9.3H654v-2.7a1.3,1.3,0,0,0,.8-.2l.9-.4.8-.6.5-.5h2.9v7.7Z" transform="translate(-654 -103.1)"/><path class="cls-1" d="M665,229.3a4.7,4.7,0,0,1,.3-1.7,5.6,5.6,0,0,1,1-1.5,3.8,3.8,0,0,1,1.5-.9,4.1,4.1,0,0,1,1.9-.4,6.5,6.5,0,0,1,2,.4,4.4,4.4,0,0,1,1.5,1.2,5.6,5.6,0,0,1,.9,1.9,10.3,10.3,0,0,1,.3,2.6,13.9,13.9,0,0,1-.3,3,11.2,11.2,0,0,1-1,2.2,4.8,4.8,0,0,1-1.6,1.3,4.6,4.6,0,0,1-2.1.5,5.4,5.4,0,0,1-2.2-.5,4.9,4.9,0,0,1-1.8-1.4l1.6-1.8a3.1,3.1,0,0,0,1.1.9,2.8,2.8,0,0,0,1.3.3,2.1,2.1,0,0,0,1.7-.8,4,4,0,0,0,.7-2.1,3.9,3.9,0,0,1-1,.8l-1.4.2a5.7,5.7,0,0,1-1.8-.3,4.2,4.2,0,0,1-1.4-.9,3.8,3.8,0,0,1-.9-1.3A4.7,4.7,0,0,1,665,229.3Zm4.7-2h-.8l-.6.5c-.2.1-.3.4-.5.6a3.3,3.3,0,0,0,0,1.6l.5.6c.1.2.4.3.6.4l.8.2.7-.2.7-.4.4-.6a3.2,3.2,0,0,0,0-1.6l-.4-.6a1.8,1.8,0,0,0-.7-.5Z" transform="translate(-654 -103.1)"/><path class="cls-1" d="M682.1,237.4v-2.5h-5v-2.5l5.9-7.6h2v7.5h1.6v2.6H685v2.5Zm-2.1-5.1h2.4v-3.2Z" transform="translate(-654 -103.1)"/><path class="cls-1" d="M699.2,231.2a3.3,3.3,0,0,1-.4,1.7,4.1,4.1,0,0,1-1,1.3,5.3,5.3,0,0,1-1.5.8,5.7,5.7,0,0,1-1.8.3,4.8,4.8,0,0,1-1.8-.3,3.8,3.8,0,0,1-1.5-.9,3.5,3.5,0,0,1-1.1-1.3,4.3,4.3,0,0,1-.3-1.7,2.8,2.8,0,0,1,.1-.9l.4-.8.6-.6.6-.5a2.4,2.4,0,0,1-1-1,2.8,2.8,0,0,1-.4-1.3,4.2,4.2,0,0,1,.4-1.6,5.7,5.7,0,0,1,1.1-1.1,3.7,3.7,0,0,1,1.4-.7l1.5-.3,1.5.3a4.2,4.2,0,0,1,2.4,1.8,2.9,2.9,0,0,1,.4,1.6,2,2,0,0,1-.1.7l-.3.6-.4.6-.6.4.7.5.5.6a3.5,3.5,0,0,1,.5.8A3.4,3.4,0,0,1,699.2,231.2Zm-2.9-.1a1.4,1.4,0,0,0-.2-.7,1,1,0,0,0-.4-.5l-.5-.3h-.7a1.8,1.8,0,0,0-1.3.4,1.3,1.3,0,0,0-.5,1.2,1.3,1.3,0,0,0,.1.6l.4.5a.9.9,0,0,0,.6.3l.7.2.7-.2a.9.9,0,0,0,.6-.3l.3-.5A1.4,1.4,0,0,0,696.3,231.1Zm-3.3-5a.8.8,0,0,0,.2.5l.3.4.5.2h1l.5-.2.3-.4a.9.9,0,0,0,.1-.5,1,1,0,0,0-.4-.9,1.7,1.7,0,0,0-1-.3,1.5,1.5,0,0,0-1,.3A1.1,1.1,0,0,0,693,226.1Z" transform="translate(-654 -103.1)"/><path class="cls-1" d="M864.9,111v2.6h-7.8V111h2.6v-4.6l-.5.5-.8.4-.9.3h-.7V105a1.2,1.2,0,0,0,.7-.2l.9-.4.8-.6.5-.5h2.9V111Z" transform="translate(-654 -103.1)"/><path class="cls-1" d="M867.7,107.8a4.7,4.7,0,0,1,.3-1.7,5.6,5.6,0,0,1,1-1.5,3.8,3.8,0,0,1,1.5-.9,4.1,4.1,0,0,1,1.9-.4,6.5,6.5,0,0,1,2,.4,4.4,4.4,0,0,1,1.5,1.2,5.6,5.6,0,0,1,.9,1.9,10.3,10.3,0,0,1,.3,2.6,13.9,13.9,0,0,1-.3,3,11.2,11.2,0,0,1-1,2.2,4,4,0,0,1-1.6,1.3,4.6,4.6,0,0,1-2.1.5,5.4,5.4,0,0,1-2.2-.5,4.9,4.9,0,0,1-1.8-1.4l1.6-1.8a3.1,3.1,0,0,0,1.1.9,3.1,3.1,0,0,0,1.3.3,2.1,2.1,0,0,0,1.7-.8,4,4,0,0,0,.7-2.1,3.9,3.9,0,0,1-1,.8l-1.4.2a4.7,4.7,0,0,1-1.7-.3,3.8,3.8,0,0,1-1.5-.9,3.8,3.8,0,0,1-.9-1.3A4.7,4.7,0,0,1,867.7,107.8Zm4.7-2h-.8l-.6.5c-.2.1-.3.4-.4.6a1.7,1.7,0,0,0,0,1.6,2.1,2.1,0,0,0,.4.6l.6.4.8.2.7-.2.7-.4.4-.6a1.7,1.7,0,0,0,0-1.6l-.4-.6a1.8,1.8,0,0,0-.7-.5Z" transform="translate(-654 -103.1)"/><path class="cls-1" d="M880.1,107.8a4.7,4.7,0,0,1,.3-1.7,5.6,5.6,0,0,1,1-1.5,3.8,3.8,0,0,1,1.5-.9,4.1,4.1,0,0,1,1.9-.4,6.5,6.5,0,0,1,2,.4,4.4,4.4,0,0,1,1.5,1.2,5.6,5.6,0,0,1,.9,1.9,10.3,10.3,0,0,1,.3,2.6,13.9,13.9,0,0,1-.3,3,11.2,11.2,0,0,1-1,2.2,4,4,0,0,1-1.6,1.3,4.6,4.6,0,0,1-2.1.5,5.4,5.4,0,0,1-2.2-.5,4.9,4.9,0,0,1-1.8-1.4l1.6-1.8a3.1,3.1,0,0,0,1.1.9,3.1,3.1,0,0,0,1.3.3,2.1,2.1,0,0,0,1.7-.8,4,4,0,0,0,.7-2.1,3.9,3.9,0,0,1-1,.8l-1.4.2a4.7,4.7,0,0,1-1.7-.3,3.8,3.8,0,0,1-1.5-.9,3.8,3.8,0,0,1-.9-1.3A4.7,4.7,0,0,1,880.1,107.8Zm4.7-2H884l-.6.5c-.2.1-.3.4-.4.6a1.7,1.7,0,0,0,0,1.6l.4.6.6.4.8.2.7-.2.7-.4.4-.6a1.7,1.7,0,0,0,0-1.6l-.4-.6a1.8,1.8,0,0,0-.7-.5Z" transform="translate(-654 -103.1)"/><path class="cls-1" d="M897.4,105.7H892v-2.6h10l-6.3,12.8h-3.3Z" transform="translate(-654 -103.1)"/><path class="cls-1" d="M1154.1,111v2.6h-7.8V111h2.6v-4.6l-.5.5-.8.4-.9.3h-.7V105a1.2,1.2,0,0,0,.7-.2l.9-.4.8-.6.5-.5h2.9V111Z" transform="translate(-654 -103.1)"/><path class="cls-1" d="M1156.9,107.8a4.7,4.7,0,0,1,.3-1.7,5.6,5.6,0,0,1,1-1.5,3.8,3.8,0,0,1,1.5-.9,4.1,4.1,0,0,1,1.9-.4,6.5,6.5,0,0,1,2,.4,4.4,4.4,0,0,1,1.5,1.2,5.6,5.6,0,0,1,.9,1.9,10.3,10.3,0,0,1,.3,2.6,13.9,13.9,0,0,1-.3,3,11.2,11.2,0,0,1-1,2.2,4.8,4.8,0,0,1-1.6,1.3,4.6,4.6,0,0,1-2.1.5,5.4,5.4,0,0,1-2.2-.5,4.9,4.9,0,0,1-1.8-1.4l1.6-1.8a3.1,3.1,0,0,0,1.1.9,3.1,3.1,0,0,0,1.3.3,2.1,2.1,0,0,0,1.7-.8,4,4,0,0,0,.7-2.1,3.9,3.9,0,0,1-1,.8l-1.4.2a4.7,4.7,0,0,1-1.7-.3,3.8,3.8,0,0,1-1.5-.9,3.8,3.8,0,0,1-.9-1.3A4.7,4.7,0,0,1,1156.9,107.8Zm4.7-2h-.8l-.6.5c-.2.1-.3.4-.4.6a1.7,1.7,0,0,0,0,1.6l.4.6.6.4.8.2.7-.2.7-.4.4-.6a1.7,1.7,0,0,0,0-1.6l-.4-.6a1.8,1.8,0,0,0-.7-.5Z" transform="translate(-654 -103.1)"/><path class="cls-1" d="M1169.3,107.8a4.7,4.7,0,0,1,.3-1.7,5.6,5.6,0,0,1,1-1.5,3.8,3.8,0,0,1,1.5-.9,4.1,4.1,0,0,1,1.9-.4,6.5,6.5,0,0,1,2,.4,4.4,4.4,0,0,1,1.5,1.2,5.6,5.6,0,0,1,.9,1.9,10.3,10.3,0,0,1,.3,2.6,13.9,13.9,0,0,1-.3,3,11.2,11.2,0,0,1-1,2.2,4,4,0,0,1-1.6,1.3,4.6,4.6,0,0,1-2.1.5,5.4,5.4,0,0,1-2.2-.5,4.9,4.9,0,0,1-1.8-1.4l1.6-1.8a3.1,3.1,0,0,0,1.1.9,3.1,3.1,0,0,0,1.3.3,2.1,2.1,0,0,0,1.7-.8,4,4,0,0,0,.7-2.1,3.9,3.9,0,0,1-1,.8l-1.4.2a4.7,4.7,0,0,1-1.7-.3,3.8,3.8,0,0,1-1.5-.9,3.8,3.8,0,0,1-.9-1.3A4.7,4.7,0,0,1,1169.3,107.8Zm4.7-2h-.8l-.6.5c-.2.1-.3.4-.4.6a1.7,1.7,0,0,0,0,1.6l.4.6.6.4.8.2.7-.2.7-.4.4-.6a1.7,1.7,0,0,0,0-1.6l-.4-.6a1.8,1.8,0,0,0-.7-.5Z" transform="translate(-654 -103.1)"/><path class="cls-1" d="M1181.7,107.8a4.7,4.7,0,0,1,.3-1.7,5.6,5.6,0,0,1,1-1.5,3.8,3.8,0,0,1,1.5-.9,4.1,4.1,0,0,1,1.9-.4,6.5,6.5,0,0,1,2,.4,4.4,4.4,0,0,1,1.5,1.2,5.6,5.6,0,0,1,.9,1.9,10.3,10.3,0,0,1,.3,2.6,13.9,13.9,0,0,1-.3,3,11.2,11.2,0,0,1-1,2.2,4,4,0,0,1-1.6,1.3,4.6,4.6,0,0,1-2.1.5,5.4,5.4,0,0,1-2.2-.5,4.9,4.9,0,0,1-1.8-1.4l1.6-1.8a3.1,3.1,0,0,0,1.1.9,3.1,3.1,0,0,0,1.3.3,2.1,2.1,0,0,0,1.7-.8,4,4,0,0,0,.7-2.1,3.9,3.9,0,0,1-1,.8l-1.4.2a4.7,4.7,0,0,1-1.7-.3,3.8,3.8,0,0,1-1.5-.9,3.8,3.8,0,0,1-.9-1.3A4.7,4.7,0,0,1,1181.7,107.8Zm4.7-2h-.8l-.6.5c-.2.1-.3.4-.4.6a1.7,1.7,0,0,0,0,1.6l.4.6.6.4.8.2.7-.2.7-.4.4-.6a1.7,1.7,0,0,0,0-1.6l-.4-.6a1.8,1.8,0,0,0-.7-.5Z" transform="translate(-654 -103.1)"/><path class="cls-1" d="M1351.6,235.1c0-.6.1-1.1.1-1.5a4.3,4.3,0,0,1,.5-1.2,3.9,3.9,0,0,1,.8-1l1.3-1,1.4-.7.9-.6a1.1,1.1,0,0,0,.5-.4.8.8,0,0,0,.2-.4,1,1,0,0,0-.4-.8,1.5,1.5,0,0,0-1-.3,2.5,2.5,0,0,0-1.3.3,5.2,5.2,0,0,0-1.1,1l-1.9-2.1a2.7,2.7,0,0,1,.8-.7l1.1-.5,1.4-.4,1.5-.2a4.5,4.5,0,0,1,3,.9,3.1,3.1,0,0,1,1,2.3,3,3,0,0,1-.2,1,2.6,2.6,0,0,1-.5.9l-.7.6-.8.5-.6.4-.7.5-.7.4-.5.4h4.9v2.6Z" transform="translate(-654 -103.1)"/><path class="cls-1" d="M1373.4,229.8a5.1,5.1,0,0,1-.4,2.2,3.2,3.2,0,0,1-1,1.7,4.4,4.4,0,0,1-1.5,1.2,3.4,3.4,0,0,1-1.8.4,4.1,4.1,0,0,1-1.9-.4,4.4,4.4,0,0,1-1.5-1.2,5.5,5.5,0,0,1-1-1.7,7.3,7.3,0,0,1-.3-2.2,7.8,7.8,0,0,1,.3-2.2,9.5,9.5,0,0,1,1-1.7,4.2,4.2,0,0,1,1.5-1.1,4.1,4.1,0,0,1,1.9-.4,3.4,3.4,0,0,1,1.8.4,4.2,4.2,0,0,1,1.5,1.1,4.2,4.2,0,0,1,1,1.7A5.4,5.4,0,0,1,1373.4,229.8Zm-2.9,0a3.9,3.9,0,0,0-.5-2,1.7,1.7,0,0,0-1.3-.8,1.4,1.4,0,0,0-1.3.8,3.1,3.1,0,0,0-.5,2,3.3,3.3,0,0,0,.5,2.1,1.4,1.4,0,0,0,1.3.7,1.6,1.6,0,0,0,1.3-.7A4.1,4.1,0,0,0,1370.5,229.8Z" transform="translate(-654 -103.1)"/><path class="cls-1" d="M1386.2,229.8a7.3,7.3,0,0,1-.3,2.2,5.5,5.5,0,0,1-1,1.7,4.4,4.4,0,0,1-1.5,1.2,4.1,4.1,0,0,1-1.9.4,3.7,3.7,0,0,1-1.8-.4,4.4,4.4,0,0,1-1.5-1.2,4,4,0,0,1-1-1.7,7.2,7.2,0,0,1-.4-2.2,7.8,7.8,0,0,1,.4-2.2,5.9,5.9,0,0,1,1-1.7,4.2,4.2,0,0,1,1.5-1.1,3.7,3.7,0,0,1,1.8-.4,4.1,4.1,0,0,1,1.9.4,4.2,4.2,0,0,1,1.5,1.1,9.5,9.5,0,0,1,1,1.7A7.8,7.8,0,0,1,1386.2,229.8Zm-2.9,0a3.1,3.1,0,0,0-.5-2,1.4,1.4,0,0,0-1.3-.8,1.6,1.6,0,0,0-1.3.8,3.9,3.9,0,0,0-.5,2,4.1,4.1,0,0,0,.5,2.1,1.5,1.5,0,0,0,1.3.7,1.4,1.4,0,0,0,1.3-.7A3.3,3.3,0,0,0,1383.3,229.8Z" transform="translate(-654 -103.1)"/><path class="cls-1" d="M1389.4,229.3a3.3,3.3,0,0,1,.4-1.7,3.1,3.1,0,0,1,1-1.5,4.2,4.2,0,0,1,1.4-.9,4.1,4.1,0,0,1,1.9-.4,5.9,5.9,0,0,1,2,.4,4.4,4.4,0,0,1,1.5,1.2,5.6,5.6,0,0,1,.9,1.9,7.1,7.1,0,0,1,.4,2.6,9.5,9.5,0,0,1-.4,3,5.5,5.5,0,0,1-1,2.2,3.4,3.4,0,0,1-1.6,1.3,4.6,4.6,0,0,1-2.1.5,5.4,5.4,0,0,1-2.2-.5,5.9,5.9,0,0,1-1.8-1.4l1.7-1.8a2.8,2.8,0,0,0,1,.9,3.5,3.5,0,0,0,1.4.3,2.3,2.3,0,0,0,1.7-.8,3.3,3.3,0,0,0,.6-2.1,3.4,3.4,0,0,1-.9.8l-1.4.2a4.8,4.8,0,0,1-1.8-.3,3.4,3.4,0,0,1-1.4-.9,6.4,6.4,0,0,1-1-1.3A4.7,4.7,0,0,1,1389.4,229.3Zm4.7-2h-.7a1.8,1.8,0,0,0-.7.5l-.4.6a1.7,1.7,0,0,0,0,1.6,2.1,2.1,0,0,0,.4.6l.6.4.8.2.8-.2.6-.4a2.1,2.1,0,0,0,.4-.6,1.7,1.7,0,0,0,0-1.6c-.1-.2-.2-.5-.4-.6l-.6-.5Z" transform="translate(-654 -103.1)"/><path class="cls-1" d="M1472,444.1a6.6,6.6,0,0,1,.1-1.5,4.2,4.2,0,0,1,.4-1.2,3.9,3.9,0,0,1,.8-1,8.5,8.5,0,0,1,1.4-1l1.4-.7.9-.6c.2-.1.4-.3.4-.4a.8.8,0,0,0,.2-.4.8.8,0,0,0-.4-.8,1.3,1.3,0,0,0-1-.3,2.8,2.8,0,0,0-1.3.3l-1.1,1-1.8-2.1a1.9,1.9,0,0,1,.8-.7l1-.5,1.4-.4,1.5-.2a4.5,4.5,0,0,1,3,.9,2.8,2.8,0,0,1,1,2.3,1.6,1.6,0,0,1-.2,1,2.6,2.6,0,0,1-.5.9l-.6.6-.8.5-.7.4-.7.5-.7.4-.5.4h4.9v2.6Z" transform="translate(-654 -103.1)"/><path class="cls-1" d="M1493.7,438.8a7.3,7.3,0,0,1-.3,2.2,5.5,5.5,0,0,1-1,1.7,4.4,4.4,0,0,1-1.5,1.2,4.1,4.1,0,0,1-1.9.4,3.7,3.7,0,0,1-1.8-.4,4.4,4.4,0,0,1-1.5-1.2,3.2,3.2,0,0,1-1-1.7,5.1,5.1,0,0,1-.4-2.2,5.4,5.4,0,0,1,.4-2.2,4.2,4.2,0,0,1,1-1.7,4.2,4.2,0,0,1,1.5-1.1,3.7,3.7,0,0,1,1.8-.4,4.1,4.1,0,0,1,1.9.4,4.2,4.2,0,0,1,1.5,1.1,9.5,9.5,0,0,1,1,1.7A7.8,7.8,0,0,1,1493.7,438.8Zm-2.9,0a3.1,3.1,0,0,0-.5-2,1.4,1.4,0,0,0-1.3-.8,1.6,1.6,0,0,0-1.3.8,3.9,3.9,0,0,0-.5,2,4.1,4.1,0,0,0,.5,2.1,1.5,1.5,0,0,0,1.3.7,1.4,1.4,0,0,0,1.3-.7A3.3,3.3,0,0,0,1490.8,438.8Z" transform="translate(-654 -103.1)"/><path class="cls-1" d="M1505.2,441.5v2.6h-7.7v-2.6h2.5v-4.6c-.1.2-.3.3-.5.5l-.7.4-.9.3h-.8v-2.7a1.5,1.5,0,0,0,.8-.2l.9-.4.8-.6.4-.5h3v7.7Z" transform="translate(-654 -103.1)"/><path class="cls-1" d="M1508.2,444.1a6.6,6.6,0,0,1,.1-1.5,4.2,4.2,0,0,1,.4-1.2,2.8,2.8,0,0,1,.9-1,4.9,4.9,0,0,1,1.3-1l1.4-.7.9-.6.5-.4a.6.6,0,0,0,.1-.4.8.8,0,0,0-.4-.8,1.3,1.3,0,0,0-1-.3,2.8,2.8,0,0,0-1.3.3l-1.1,1-1.8-2.1a1.9,1.9,0,0,1,.8-.7l1.1-.5,1.3-.4,1.5-.2a4.5,4.5,0,0,1,3,.9,2.8,2.8,0,0,1,1,2.3,3.1,3.1,0,0,1-.1,1l-.5.9-.7.6-.8.5-.6.4-.8.5-.7.4-.5.4h4.9v2.6Z" transform="translate(-654 -103.1)"/><path class="cls-1" d="M1472,682.1a6.6,6.6,0,0,1,.1-1.5,4.2,4.2,0,0,1,.4-1.2,2.8,2.8,0,0,1,.9-1,4.9,4.9,0,0,1,1.3-1l1.4-.7.9-.6.5-.4a.6.6,0,0,0,.1-.4,1,1,0,0,0-.3-.8,1.8,1.8,0,0,0-1.1-.3,2.8,2.8,0,0,0-1.3.3l-1.1,1-1.8-2.1a1.9,1.9,0,0,1,.8-.7l1.1-.5,1.3-.4,1.5-.2a4.5,4.5,0,0,1,3,.9,2.8,2.8,0,0,1,1,2.3,3.1,3.1,0,0,1-.1,1l-.5.9-.7.6-.8.5-.6.4-.8.5-.7.4-.5.4h4.9v2.6Z" transform="translate(-654 -103.1)"/><path class="cls-1" d="M1493.7,676.8a7.3,7.3,0,0,1-.3,2.2,5.5,5.5,0,0,1-1,1.7,4.4,4.4,0,0,1-1.5,1.2,4.1,4.1,0,0,1-1.9.4,3.7,3.7,0,0,1-1.8-.4,4.4,4.4,0,0,1-1.5-1.2,4,4,0,0,1-1-1.7,7.2,7.2,0,0,1-.4-2.2,7.8,7.8,0,0,1,.4-2.2,5.9,5.9,0,0,1,1-1.7,4.2,4.2,0,0,1,1.5-1.1,3.7,3.7,0,0,1,1.8-.4,4.1,4.1,0,0,1,1.9.4,4.2,4.2,0,0,1,1.5,1.1,9.5,9.5,0,0,1,1,1.7A7.8,7.8,0,0,1,1493.7,676.8Zm-2.9,0a3.1,3.1,0,0,0-.5-2,1.4,1.4,0,0,0-1.3-.8,1.6,1.6,0,0,0-1.3.8,3.9,3.9,0,0,0-.5,2,4.1,4.1,0,0,0,.5,2.1,1.5,1.5,0,0,0,1.3.7,1.4,1.4,0,0,0,1.3-.7A3.3,3.3,0,0,0,1490.8,676.8Z" transform="translate(-654 -103.1)"/><path class="cls-1" d="M1505.3,679.5v2.6h-7.8v-2.6h2.5v-4.6a1.2,1.2,0,0,1-.5.5l-.7.4-.9.3h-.8v-2.7a1.3,1.3,0,0,0,.8-.2l.9-.4.8-.6c.2-.2.4-.4.4-.5h3v7.7Z" transform="translate(-654 -103.1)"/><path class="cls-1" d="M1512.8,684.4v-2.5h-5v-2.5l5.9-7.6h1.9v7.5h1.6v2.6h-1.6v2.5Zm-2.1-5.1h2.4v-3.2Z" transform="translate(-654 -103.1)"/><path class="cls-1" d="M1352.3,889.1c0-.6.1-1.1.1-1.5a4.3,4.3,0,0,1,.5-1.2,3.9,3.9,0,0,1,.8-1l1.3-1,1.4-.7.9-.6.5-.4a.6.6,0,0,0,.1-.4,1,1,0,0,0-.3-.8,1.7,1.7,0,0,0-1-.3,3.2,3.2,0,0,0-1.4.3,9.4,9.4,0,0,0-1,1l-1.9-2.1a2.7,2.7,0,0,1,.8-.7l1.1-.5,1.3-.4,1.6-.2a4,4,0,0,1,2.9.9,2.8,2.8,0,0,1,1.1,2.3,3,3,0,0,1-.2,1,2.6,2.6,0,0,1-.5.9l-.7.6-.8.5-.6.4-.8.5-.6.4-.5.4h4.9v2.6Z" transform="translate(-654 -103.1)"/><path class="cls-1" d="M1374.1,883.8a5.1,5.1,0,0,1-.4,2.2,4,4,0,0,1-1,1.7,4.4,4.4,0,0,1-1.5,1.2,3.7,3.7,0,0,1-1.8.4,4.1,4.1,0,0,1-1.9-.4,4.4,4.4,0,0,1-1.5-1.2,5.5,5.5,0,0,1-1-1.7,7.3,7.3,0,0,1-.3-2.2,7.8,7.8,0,0,1,.3-2.2,9.5,9.5,0,0,1,1-1.7,4.2,4.2,0,0,1,1.5-1.1,4.1,4.1,0,0,1,1.9-.4,3.7,3.7,0,0,1,1.8.4,4.2,4.2,0,0,1,1.5,1.1,5.9,5.9,0,0,1,1,1.7A5.4,5.4,0,0,1,1374.1,883.8Zm-2.9,0a3.9,3.9,0,0,0-.5-2,1.7,1.7,0,0,0-1.3-.8,1.4,1.4,0,0,0-1.3.8,3.1,3.1,0,0,0-.5,2,3.3,3.3,0,0,0,.5,2.1,1.4,1.4,0,0,0,1.3.7,1.6,1.6,0,0,0,1.3-.7A4.1,4.1,0,0,0,1371.2,883.8Z" transform="translate(-654 -103.1)"/><path class="cls-1" d="M1385.6,886.5v2.6h-7.8v-2.6h2.6v-4.6l-.5.5-.8.4-.9.3h-.7v-2.7a1.1,1.1,0,0,0,.7-.2l.9-.4.8-.6a2.3,2.3,0,0,0,.5-.5h2.9v7.7Z" transform="translate(-654 -103.1)"/><path class="cls-1" d="M1398.1,884.8a3.9,3.9,0,0,1-.4,1.8,4.5,4.5,0,0,1-1,1.4,3.8,3.8,0,0,1-1.5.9,3.9,3.9,0,0,1-1.8.4,5.4,5.4,0,0,1-2-.4,4.4,4.4,0,0,1-1.5-1.2,5.7,5.7,0,0,1-1-1.9,10.3,10.3,0,0,1-.3-2.6,9.5,9.5,0,0,1,.4-3,5.5,5.5,0,0,1,1-2.2,4.7,4.7,0,0,1,1.5-1.3,5.4,5.4,0,0,1,2.1-.5,5.1,5.1,0,0,1,2.2.5,4.9,4.9,0,0,1,1.8,1.4l-1.6,1.8a5.3,5.3,0,0,0-1.1-.9,2.8,2.8,0,0,0-1.3-.3,2.1,2.1,0,0,0-1.7.8,4,4,0,0,0-.7,2.1,2.3,2.3,0,0,1,1-.7,3.2,3.2,0,0,1,1.4-.3,5.7,5.7,0,0,1,1.8.3,4.2,4.2,0,0,1,1.4.9,3.8,3.8,0,0,1,.9,1.3A3.3,3.3,0,0,1,1398.1,884.8Zm-4.7,2.1.7-.2.6-.4.5-.7a3.3,3.3,0,0,0,0-1.6l-.5-.6-.6-.4h-1.5a1.5,1.5,0,0,0-.6.4l-.5.6a3.3,3.3,0,0,0,0,1.6l.5.7.6.4Z" transform="translate(-654 -103.1)"/><path class="cls-1" d="M856.2,1008.6a6.1,6.1,0,0,1,.2-1.5,2.5,2.5,0,0,1,.4-1.2,3.9,3.9,0,0,1,.8-1l1.3-1,1.4-.7.9-.6a1.1,1.1,0,0,0,.5-.4.8.8,0,0,0,.2-.4,1,1,0,0,0-.4-.8,1.5,1.5,0,0,0-1-.3,2.5,2.5,0,0,0-1.3.3,5.2,5.2,0,0,0-1.1,1l-1.8-2.1a1.6,1.6,0,0,1,.7-.7l1.1-.5,1.4-.4,1.5-.2a4.5,4.5,0,0,1,3,.9,2.8,2.8,0,0,1,1,2.3,3,3,0,0,1-.2,1,2.6,2.6,0,0,1-.5.9l-.7.6-.7.5-.7.4-.7.5-.7.4-.5.4h4.9v2.6Z" transform="translate(-654 -103.1)"/><path class="cls-1" d="M878,1003.3a5.1,5.1,0,0,1-.4,2.2,3.2,3.2,0,0,1-1,1.7,5.3,5.3,0,0,1-1.4,1.2,4.7,4.7,0,0,1-3.8,0,7.9,7.9,0,0,1-1.5-1.2,3.9,3.9,0,0,1-.9-1.7,5.1,5.1,0,0,1-.4-2.2,5.4,5.4,0,0,1,.4-2.2,5.6,5.6,0,0,1,.9-1.7,7.2,7.2,0,0,1,1.5-1.1,4.7,4.7,0,0,1,3.8,0,4.9,4.9,0,0,1,1.4,1.1,4.2,4.2,0,0,1,1,1.7A5.4,5.4,0,0,1,878,1003.3Zm-2.9,0a3.9,3.9,0,0,0-.5-2,1.6,1.6,0,0,0-1.3-.8,1.4,1.4,0,0,0-1.3.8,3.1,3.1,0,0,0-.5,2,3.3,3.3,0,0,0,.5,2.1,1.4,1.4,0,0,0,1.3.7,1.5,1.5,0,0,0,1.3-.7A4.1,4.1,0,0,0,875.1,1003.3Z" transform="translate(-654 -103.1)"/><path class="cls-1" d="M889.5,1006v2.6h-7.8V1006h2.6v-4.6c-.1.2-.3.3-.5.5l-.8.4-.8.3h-.8V1000a1.1,1.1,0,0,0,.7-.2l.9-.4.8-.6a2.3,2.3,0,0,0,.5-.5h2.9v7.7Z" transform="translate(-654 -103.1)"/><path class="cls-1" d="M892.3,1002.8a4.7,4.7,0,0,1,.3-1.7,5.6,5.6,0,0,1,1-1.5,6,6,0,0,1,1.5-.9,4.1,4.1,0,0,1,1.9-.4,6.5,6.5,0,0,1,2,.4,4.4,4.4,0,0,1,1.5,1.2,5.6,5.6,0,0,1,.9,1.9,10.1,10.1,0,0,1,.4,2.6,13.6,13.6,0,0,1-.4,3,7.4,7.4,0,0,1-1,2.2,4,4,0,0,1-1.6,1.3,4.6,4.6,0,0,1-2.1.5,5.4,5.4,0,0,1-2.2-.5,4.9,4.9,0,0,1-1.8-1.4l1.6-1.8a3.1,3.1,0,0,0,1.1.9,3.2,3.2,0,0,0,1.4.3,1.9,1.9,0,0,0,1.6-.8,3.3,3.3,0,0,0,.7-2.1,2.7,2.7,0,0,1-1,.8l-1.3.2a4.8,4.8,0,0,1-1.8-.3,3.4,3.4,0,0,1-1.4-.9,6.4,6.4,0,0,1-1-1.3A4.7,4.7,0,0,1,892.3,1002.8Zm4.7-2h-.8l-.6.5c-.2.1-.3.4-.4.6a1.7,1.7,0,0,0,0,1.6,2.1,2.1,0,0,0,.4.6l.6.4.8.2.8-.2.6-.4a2.1,2.1,0,0,0,.4-.6,1.7,1.7,0,0,0,0-1.6c-.1-.2-.2-.5-.4-.6l-.6-.5Z" transform="translate(-654 -103.1)"/><path class="cls-1" d="M1146,1008.6a6.1,6.1,0,0,1,.2-1.5,2.5,2.5,0,0,1,.4-1.2,3.9,3.9,0,0,1,.8-1l1.3-1,1.4-.7.9-.6a1.1,1.1,0,0,0,.5-.4.8.8,0,0,0,.2-.4,1,1,0,0,0-.4-.8,1.5,1.5,0,0,0-1-.3,2.5,2.5,0,0,0-1.3.3,5.2,5.2,0,0,0-1.1,1l-1.8-2.1a1.6,1.6,0,0,1,.7-.7l1.1-.5,1.4-.4,1.5-.2a4.5,4.5,0,0,1,3,.9,2.8,2.8,0,0,1,1,2.3,3,3,0,0,1-.2,1,2.6,2.6,0,0,1-.5.9l-.7.6-.7.5-.7.4-.7.5-.7.4-.5.4h4.9v2.6Z" transform="translate(-654 -103.1)"/><path class="cls-1" d="M1167.8,1003.3a5.1,5.1,0,0,1-.4,2.2,3.2,3.2,0,0,1-1,1.7,5.3,5.3,0,0,1-1.4,1.2,4.7,4.7,0,0,1-3.8,0,7.9,7.9,0,0,1-1.5-1.2,3.9,3.9,0,0,1-.9-1.7,5.1,5.1,0,0,1-.4-2.2,5.4,5.4,0,0,1,.4-2.2,5.6,5.6,0,0,1,.9-1.7,7.2,7.2,0,0,1,1.5-1.1,4.7,4.7,0,0,1,3.8,0,4.9,4.9,0,0,1,1.4,1.1,4.2,4.2,0,0,1,1,1.7A5.4,5.4,0,0,1,1167.8,1003.3Zm-2.9,0a3.9,3.9,0,0,0-.5-2,1.6,1.6,0,0,0-1.3-.8,1.4,1.4,0,0,0-1.3.8,3.1,3.1,0,0,0-.5,2,3.3,3.3,0,0,0,.5,2.1,1.4,1.4,0,0,0,1.3.7,1.5,1.5,0,0,0,1.3-.7A4.1,4.1,0,0,0,1164.9,1003.3Z" transform="translate(-654 -103.1)"/><path class="cls-1" d="M1179.3,1006v2.6h-7.8V1006h2.6v-4.6c-.1.2-.3.3-.5.5l-.8.4-.8.3h-.8V1000a1.1,1.1,0,0,0,.7-.2l.9-.4.8-.6a2.3,2.3,0,0,0,.5-.5h2.9v7.7Z" transform="translate(-654 -103.1)"/><path class="cls-1" d="M1187.1,1000.7h-5.4v-2.6h10l-6.3,12.8h-3.3Z" transform="translate(-654 -103.1)"/><path class="cls-1" d="M654,889.1a6.6,6.6,0,0,1,.1-1.5,4.2,4.2,0,0,1,.4-1.2,4.3,4.3,0,0,1,.9-1l1.3-1,1.4-.7.9-.6.5-.4a.6.6,0,0,0,.1-.4,1,1,0,0,0-.3-.8,1.8,1.8,0,0,0-1.1-.3,2.8,2.8,0,0,0-1.3.3l-1.1,1-1.8-2.1a2.7,2.7,0,0,1,.8-.7l1.1-.5,1.3-.4,1.5-.2a4.5,4.5,0,0,1,3,.9,2.8,2.8,0,0,1,1.1,2.3,3,3,0,0,1-.2,1l-.5.9-.7.6-.8.5-.6.4-.8.5-.7.4-.4.4H663v2.6Z" transform="translate(-654 -103.1)"/><path class="cls-1" d="M675.8,883.8a7.2,7.2,0,0,1-.4,2.2,4,4,0,0,1-1,1.7,4.4,4.4,0,0,1-1.5,1.2,3.9,3.9,0,0,1-1.8.4,4.1,4.1,0,0,1-1.9-.4,4.4,4.4,0,0,1-1.5-1.2,4,4,0,0,1-1-1.7,7.3,7.3,0,0,1-.3-2.2,7.8,7.8,0,0,1,.3-2.2,5.9,5.9,0,0,1,1-1.7,4.2,4.2,0,0,1,1.5-1.1,4.1,4.1,0,0,1,1.9-.4,3.9,3.9,0,0,1,1.8.4,4.2,4.2,0,0,1,1.5,1.1,5.9,5.9,0,0,1,1,1.7A7.8,7.8,0,0,1,675.8,883.8Zm-2.9,0a3.2,3.2,0,0,0-.6-2,1.4,1.4,0,0,0-1.2-.8,1.7,1.7,0,0,0-1.4.8,3.9,3.9,0,0,0-.5,2,4.1,4.1,0,0,0,.5,2.1,1.6,1.6,0,0,0,1.4.7,1.3,1.3,0,0,0,1.2-.7A3.3,3.3,0,0,0,672.9,883.8Z" transform="translate(-654 -103.1)"/><path class="cls-1" d="M679.1,889.1a6.6,6.6,0,0,1,.1-1.5,4.2,4.2,0,0,1,.4-1.2,2.8,2.8,0,0,1,.9-1l1.3-1,1.4-.7.9-.6.5-.4a.6.6,0,0,0,.1-.4,1,1,0,0,0-.3-.8,1.8,1.8,0,0,0-1.1-.3,2.8,2.8,0,0,0-1.3.3l-1.1,1-1.8-2.1a1.9,1.9,0,0,1,.8-.7l1.1-.5,1.3-.4,1.5-.2a4.5,4.5,0,0,1,3,.9,2.8,2.8,0,0,1,1,2.3,3.1,3.1,0,0,1-.1,1l-.5.9-.7.6-.8.5-.6.4-.8.5-.7.4-.5.4H688v2.6Z" transform="translate(-654 -103.1)"/><path class="cls-1" d="M699.5,886.5v2.6h-7.8v-2.6h2.6v-4.6c-.1.2-.3.3-.5.5l-.8.4-.8.3h-.8v-2.7a1.1,1.1,0,0,0,.7-.2l.9-.4.8-.6a2.3,2.3,0,0,0,.5-.5h2.9v7.7Z" transform="translate(-654 -103.1)"/></svg>