<?xml version="1.0" encoding="utf-8"?>
<!-- Generator: Adobe Illustrator 25.2.0, SVG Export Plug-In . SVG Version: 6.00 Build 0)  -->
<svg version="1.1" id="圖層_1" xmlns="http://www.w3.org/2000/svg" xmlns:xlink="http://www.w3.org/1999/xlink" x="0px" y="0px"
	 viewBox="0 0 2500 294" style="enable-background:new 0 0 2500 294;" xml:space="preserve">
<style type="text/css">
	.st0{fill:#F9BB1E;}
</style>
<path class="st0" d="M2500,80.8C2315.9,81,2134-1,2006,1c-156.7,2.5-334,165.5-501.9,165.5c-150.5,8.3-320.8,8.1-478.4-21.6
	S654.3,69.2,472,59C285,51,207,81,0,80.6v169.7C153,249,185.7,159.7,353,141c82.5-9.2,168.7-11.4,328.3-17.1
	c159-13.6,310.4,37.5,462.8,83.7s306.2,92.3,470.7,83.3C1811,281,1857,209,2025,194.7c169.1-14.5,305,54.4,475,54L2500,80.8z"/>
</svg>
