<svg id="圖層_1" data-name="圖層 1" xmlns="http://www.w3.org/2000/svg" viewBox="0 0 2338.2 72.2"><defs><style>.cls-1{fill:#f4fefe;}</style></defs><path class="cls-1" d="M100.7,110.4a19.5,19.5,0,0,0-2.9-2.3,23.8,23.8,0,0,0-4.5-2.4,36.9,36.9,0,0,0-5.6-1.8,25.6,25.6,0,0,0-6.2-.7c-4.8,0-8.2.9-10.5,2.6a8.6,8.6,0,0,0-3.3,7.2,8.1,8.1,0,0,0,1,4.3,9.6,9.6,0,0,0,3.3,2.9,29.8,29.8,0,0,0,5.5,2.2l7.7,2a87,87,0,0,1,9.7,2.9,30.2,30.2,0,0,1,7.4,3.9,15.1,15.1,0,0,1,4.6,5.7,18,18,0,0,1,1.7,8.1,19.4,19.4,0,0,1-2.1,9.3,17.2,17.2,0,0,1-5.6,6.4,25.5,25.5,0,0,1-8.2,3.6,46.7,46.7,0,0,1-10.1,1.1A52,52,0,0,1,66.9,163a46.6,46.6,0,0,1-13.6-7.2l5.1-9.6a21.7,21.7,0,0,0,3.7,2.9,38.1,38.1,0,0,0,5.7,3,59.2,59.2,0,0,0,7.1,2.3,33.5,33.5,0,0,0,7.9.9c4.4,0,7.8-.8,10.2-2.3a7.5,7.5,0,0,0,3.6-6.8,7.3,7.3,0,0,0-1.4-4.5,12,12,0,0,0-3.8-3.1,32.1,32.1,0,0,0-6.1-2.5l-8.2-2.3a86.8,86.8,0,0,1-9.3-2.9,23.7,23.7,0,0,1-6.5-3.8,14.8,14.8,0,0,1-4-5.1,17.5,17.5,0,0,1-1.3-7.2,19.5,19.5,0,0,1,2-9.2,19,19,0,0,1,5.4-6.8,22,22,0,0,1,8.2-4.2,36.4,36.4,0,0,1,10.2-1.4,38.3,38.3,0,0,1,13.3,2.3,43.6,43.6,0,0,1,10.7,5.7Z" transform="translate(-53.3 -93.2)"/><path class="cls-1" d="M178.1,93.7v71H166.8V133.4H131v31.3H119.8v-71H131v29.7h35.8V93.7Z" transform="translate(-53.3 -93.2)"/><path class="cls-1" d="M215,93.7h9.8l28,71H241l-7.5-19.3H206.1l-7.4,19.3H186.8Zm16.3,43.4-11.4-30.5-11.8,30.5Z" transform="translate(-53.3 -93.2)"/><path class="cls-1" d="M288.5,165.2a31.8,31.8,0,0,1-13.9-3,37.3,37.3,0,0,1-10.7-8.1,39.1,39.1,0,0,1-7-11.6,38.1,38.1,0,0,1-2.4-13.3,35,35,0,0,1,2.6-13.6,37.6,37.6,0,0,1,7.1-11.5A35,35,0,0,1,275,96.2a31.2,31.2,0,0,1,13.7-3,30.2,30.2,0,0,1,13.8,3.2,33.6,33.6,0,0,1,10.7,8.2,36.8,36.8,0,0,1,6.9,11.6,35,35,0,0,1,2.5,13.1,37,37,0,0,1-2.6,13.6,37.6,37.6,0,0,1-7.1,11.5,35.9,35.9,0,0,1-10.9,7.9A32.1,32.1,0,0,1,288.5,165.2Zm-22.6-36a29,29,0,0,0,1.6,9.7,26.6,26.6,0,0,0,4.5,8.3,23.9,23.9,0,0,0,7.2,5.8,20.6,20.6,0,0,0,9.4,2.1,19.3,19.3,0,0,0,9.5-2.2,22.7,22.7,0,0,0,7.1-6,27.5,27.5,0,0,0,4.4-8.3,30.3,30.3,0,0,0,1.5-9.4,31.3,31.3,0,0,0-1.6-9.7,25.3,25.3,0,0,0-4.6-8.2,20.8,20.8,0,0,0-7.1-5.7,18.7,18.7,0,0,0-9.2-2.2,20,20,0,0,0-9.6,2.3,22.4,22.4,0,0,0-7.1,5.8,26.6,26.6,0,0,0-4.5,8.3A30.3,30.3,0,0,0,265.9,129.2Z" transform="translate(-53.3 -93.2)"/><path class="cls-1" d="M393.9,164.7V113.6l-21.1,38.7h-6.2l-21.2-38.7v51.1H334.2v-71h12l23.5,43.4,23.5-43.4h12v71Z" transform="translate(-53.3 -93.2)"/><path class="cls-1" d="M469.9,154.8v9.9H421.2v-71H469v9.9H432.4v20.2h31.7v9.3H432.4v21.7Z" transform="translate(-53.3 -93.2)"/><path class="cls-1" d="M481.5,164.7v-71h11.2v71Z" transform="translate(-53.3 -93.2)"/><path class="cls-1" d="M575.4,110.4a19.5,19.5,0,0,0-2.9-2.3,23.8,23.8,0,0,0-4.5-2.4,36.9,36.9,0,0,0-5.6-1.8,25.6,25.6,0,0,0-6.2-.7c-4.8,0-8.2.9-10.5,2.6a8.6,8.6,0,0,0-3.3,7.2,8.1,8.1,0,0,0,1,4.3,9.6,9.6,0,0,0,3.3,2.9,29.8,29.8,0,0,0,5.5,2.2l7.7,2a87,87,0,0,1,9.7,2.9,30.2,30.2,0,0,1,7.4,3.9,15.1,15.1,0,0,1,4.6,5.7,18,18,0,0,1,1.7,8.1,19.4,19.4,0,0,1-2.1,9.3,17.2,17.2,0,0,1-5.6,6.4,25.5,25.5,0,0,1-8.2,3.6,46.7,46.7,0,0,1-10.1,1.1,52,52,0,0,1-15.7-2.4,46.6,46.6,0,0,1-13.6-7.2l5.1-9.6a21.7,21.7,0,0,0,3.7,2.9,38.1,38.1,0,0,0,5.7,3,59.2,59.2,0,0,0,7.1,2.3,33.5,33.5,0,0,0,7.9.9c4.4,0,7.8-.8,10.2-2.3a7.5,7.5,0,0,0,3.6-6.8,7.3,7.3,0,0,0-1.4-4.5,12,12,0,0,0-3.8-3.1,32.1,32.1,0,0,0-6.1-2.5l-8.2-2.3a86.8,86.8,0,0,1-9.3-2.9,23.7,23.7,0,0,1-6.5-3.8,14.8,14.8,0,0,1-4-5.1,17.5,17.5,0,0,1-1.3-7.2,19.5,19.5,0,0,1,2-9.2,19,19,0,0,1,5.4-6.8,22,22,0,0,1,8.2-4.2,36.4,36.4,0,0,1,10.2-1.4,38.3,38.3,0,0,1,13.3,2.3,43.6,43.6,0,0,1,10.7,5.7Z" transform="translate(-53.3 -93.2)"/><path class="cls-1" d="M652.8,93.7v71H641.5V133.4H605.7v31.3H594.5v-71h11.2v29.7h35.8V93.7Z" transform="translate(-53.3 -93.2)"/><path class="cls-1" d="M689.7,93.7h9.8l28,71H715.7l-7.5-19.3H680.8l-7.4,19.3H661.5ZM706,137.1l-11.4-30.5-11.8,30.5Z" transform="translate(-53.3 -93.2)"/><path class="cls-1" d="M763.2,165.2a31.8,31.8,0,0,1-13.9-3,37.3,37.3,0,0,1-10.7-8.1,39.1,39.1,0,0,1-7-11.6,38.1,38.1,0,0,1-2.4-13.3,35,35,0,0,1,2.6-13.6,37.6,37.6,0,0,1,7.1-11.5,35,35,0,0,1,10.8-7.9,31.2,31.2,0,0,1,13.7-3,30.2,30.2,0,0,1,13.8,3.2,33.6,33.6,0,0,1,10.7,8.2,36.8,36.8,0,0,1,6.9,11.6,35,35,0,0,1,2.5,13.1,37,37,0,0,1-2.6,13.6,37.6,37.6,0,0,1-7.1,11.5,35.9,35.9,0,0,1-10.9,7.9A32.1,32.1,0,0,1,763.2,165.2Zm-22.6-36a29,29,0,0,0,1.6,9.7,26.6,26.6,0,0,0,4.5,8.3,23.9,23.9,0,0,0,7.2,5.8,20.6,20.6,0,0,0,9.4,2.1,19.3,19.3,0,0,0,9.5-2.2,22.7,22.7,0,0,0,7.1-6,27.5,27.5,0,0,0,4.4-8.3,30.3,30.3,0,0,0,1.5-9.4,31.3,31.3,0,0,0-1.6-9.7,25.3,25.3,0,0,0-4.6-8.2,20.8,20.8,0,0,0-7.1-5.7,18.7,18.7,0,0,0-9.2-2.2,20,20,0,0,0-9.6,2.3,22.4,22.4,0,0,0-7.1,5.8,26.6,26.6,0,0,0-4.5,8.3A30.3,30.3,0,0,0,740.6,129.2Z" transform="translate(-53.3 -93.2)"/><path class="cls-1" d="M868.6,164.7V113.6l-21.1,38.7h-6.2l-21.2-38.7v51.1H808.9v-71h12l23.5,43.4,23.5-43.4h12v71Z" transform="translate(-53.3 -93.2)"/><path class="cls-1" d="M944.6,154.8v9.9H895.9v-71h47.8v9.9H907.1v20.2h31.7v9.3H907.1v21.7Z" transform="translate(-53.3 -93.2)"/><path class="cls-1" d="M956.2,164.7v-71h11.2v71Z" transform="translate(-53.3 -93.2)"/><path class="cls-1" d="M1050.1,110.4a19.5,19.5,0,0,0-2.9-2.3,23.8,23.8,0,0,0-4.5-2.4,36.9,36.9,0,0,0-5.6-1.8,25.6,25.6,0,0,0-6.2-.7c-4.8,0-8.2.9-10.5,2.6a8.6,8.6,0,0,0-3.3,7.2,8.1,8.1,0,0,0,1,4.3,9.6,9.6,0,0,0,3.3,2.9,29.8,29.8,0,0,0,5.5,2.2l7.7,2a87,87,0,0,1,9.7,2.9,30.2,30.2,0,0,1,7.4,3.9,15.1,15.1,0,0,1,4.6,5.7,18,18,0,0,1,1.7,8.1,19.4,19.4,0,0,1-2.1,9.3,17.2,17.2,0,0,1-5.6,6.4,25.5,25.5,0,0,1-8.2,3.6,46.7,46.7,0,0,1-10.1,1.1,52,52,0,0,1-15.7-2.4,46.6,46.6,0,0,1-13.6-7.2l5.1-9.6a21.7,21.7,0,0,0,3.7,2.9,38.1,38.1,0,0,0,5.7,3,59.2,59.2,0,0,0,7.1,2.3,33.5,33.5,0,0,0,7.9.9c4.4,0,7.8-.8,10.2-2.3a7.5,7.5,0,0,0,3.6-6.8,7.3,7.3,0,0,0-1.4-4.5,12,12,0,0,0-3.8-3.1,32.1,32.1,0,0,0-6.1-2.5l-8.2-2.3a86.8,86.8,0,0,1-9.3-2.9,23.7,23.7,0,0,1-6.5-3.8,14.8,14.8,0,0,1-4-5.1,17.5,17.5,0,0,1-1.3-7.2,19.5,19.5,0,0,1,2-9.2,19,19,0,0,1,5.4-6.8,22,22,0,0,1,8.2-4.2,36.4,36.4,0,0,1,10.2-1.4,38.3,38.3,0,0,1,13.3,2.3,43.6,43.6,0,0,1,10.7,5.7Z" transform="translate(-53.3 -93.2)"/><path class="cls-1" d="M1127.5,93.7v71h-11.3V133.4h-35.8v31.3h-11.2v-71h11.2v29.7h35.8V93.7Z" transform="translate(-53.3 -93.2)"/><path class="cls-1" d="M1164.4,93.7h9.8l28,71h-11.8l-7.5-19.3h-27.4l-7.4,19.3h-11.9Zm16.3,43.4-11.4-30.5-11.8,30.5Z" transform="translate(-53.3 -93.2)"/><path class="cls-1" d="M1237.9,165.2a31.8,31.8,0,0,1-13.9-3,37.3,37.3,0,0,1-10.7-8.1,39.1,39.1,0,0,1-7-11.6,38.1,38.1,0,0,1-2.4-13.3,35,35,0,0,1,2.6-13.6,37.6,37.6,0,0,1,7.1-11.5,35,35,0,0,1,10.8-7.9,31.2,31.2,0,0,1,13.7-3,30.2,30.2,0,0,1,13.8,3.2,33.6,33.6,0,0,1,10.7,8.2,36.8,36.8,0,0,1,6.9,11.6,35,35,0,0,1,2.5,13.1,37,37,0,0,1-2.6,13.6,37.6,37.6,0,0,1-7.1,11.5,35.9,35.9,0,0,1-10.9,7.9A32.1,32.1,0,0,1,1237.9,165.2Zm-22.6-36a29,29,0,0,0,1.6,9.7,26.6,26.6,0,0,0,4.5,8.3,23.9,23.9,0,0,0,7.2,5.8,20.6,20.6,0,0,0,9.4,2.1,19.3,19.3,0,0,0,9.5-2.2,22.7,22.7,0,0,0,7.1-6,27.5,27.5,0,0,0,4.4-8.3,30.3,30.3,0,0,0,1.5-9.4,31.3,31.3,0,0,0-1.6-9.7,25.3,25.3,0,0,0-4.6-8.2,20.8,20.8,0,0,0-7.1-5.7,18.7,18.7,0,0,0-9.2-2.2,20,20,0,0,0-9.6,2.3,22.4,22.4,0,0,0-7.1,5.8,26.6,26.6,0,0,0-4.5,8.3A30.3,30.3,0,0,0,1215.3,129.2Z" transform="translate(-53.3 -93.2)"/><path class="cls-1" d="M1343.3,164.7V113.6l-21.1,38.7H1316l-21.2-38.7v51.1h-11.2v-71h12l23.5,43.4,23.5-43.4h12v71Z" transform="translate(-53.3 -93.2)"/><path class="cls-1" d="M1419.3,154.8v9.9h-48.7v-71h47.8v9.9h-36.6v20.2h31.7v9.3h-31.7v21.7Z" transform="translate(-53.3 -93.2)"/><path class="cls-1" d="M1430.9,164.7v-71h11.2v71Z" transform="translate(-53.3 -93.2)"/><path class="cls-1" d="M1524.8,110.4a19.5,19.5,0,0,0-2.9-2.3,23.8,23.8,0,0,0-4.5-2.4,36.9,36.9,0,0,0-5.6-1.8,25.6,25.6,0,0,0-6.2-.7c-4.8,0-8.2.9-10.5,2.6a8.6,8.6,0,0,0-3.3,7.2,8.1,8.1,0,0,0,1,4.3,9.6,9.6,0,0,0,3.3,2.9,29.8,29.8,0,0,0,5.5,2.2l7.7,2a87,87,0,0,1,9.7,2.9,30.2,30.2,0,0,1,7.4,3.9,15.1,15.1,0,0,1,4.6,5.7,18,18,0,0,1,1.7,8.1,19.4,19.4,0,0,1-2.1,9.3,17.2,17.2,0,0,1-5.6,6.4,25.5,25.5,0,0,1-8.2,3.6,46.7,46.7,0,0,1-10.1,1.1A52,52,0,0,1,1491,163a46.6,46.6,0,0,1-13.6-7.2l5.1-9.6a21.7,21.7,0,0,0,3.7,2.9,38.1,38.1,0,0,0,5.7,3,59.2,59.2,0,0,0,7.1,2.3,33.5,33.5,0,0,0,7.9.9c4.4,0,7.8-.8,10.2-2.3a7.5,7.5,0,0,0,3.6-6.8,7.3,7.3,0,0,0-1.4-4.5,12,12,0,0,0-3.8-3.1,32.1,32.1,0,0,0-6.1-2.5l-8.2-2.3a86.8,86.8,0,0,1-9.3-2.9,23.7,23.7,0,0,1-6.5-3.8,14.8,14.8,0,0,1-4-5.1,17.5,17.5,0,0,1-1.3-7.2,19.5,19.5,0,0,1,2-9.2,19,19,0,0,1,5.4-6.8,22,22,0,0,1,8.2-4.2,36.4,36.4,0,0,1,10.2-1.4,38.3,38.3,0,0,1,13.3,2.3,43.6,43.6,0,0,1,10.7,5.7Z" transform="translate(-53.3 -93.2)"/><path class="cls-1" d="M1602.2,93.7v71h-11.3V133.4h-35.8v31.3h-11.2v-71h11.2v29.7h35.8V93.7Z" transform="translate(-53.3 -93.2)"/><path class="cls-1" d="M1639.1,93.7h9.8l28,71h-11.8l-7.5-19.3h-27.4l-7.4,19.3h-11.9Zm16.3,43.4L1644,106.6l-11.8,30.5Z" transform="translate(-53.3 -93.2)"/><path class="cls-1" d="M1712.6,165.2a31.8,31.8,0,0,1-13.9-3,37.3,37.3,0,0,1-10.7-8.1,39.1,39.1,0,0,1-7-11.6,38.1,38.1,0,0,1-2.4-13.3,35,35,0,0,1,2.6-13.6,37.6,37.6,0,0,1,7.1-11.5,35,35,0,0,1,10.8-7.9,31.2,31.2,0,0,1,13.7-3,30.2,30.2,0,0,1,13.8,3.2,33.6,33.6,0,0,1,10.7,8.2,36.8,36.8,0,0,1,6.9,11.6,35,35,0,0,1,2.5,13.1,37,37,0,0,1-2.6,13.6,37.6,37.6,0,0,1-7.1,11.5,35.9,35.9,0,0,1-10.9,7.9A32.1,32.1,0,0,1,1712.6,165.2Zm-22.6-36a29,29,0,0,0,1.6,9.7,26.6,26.6,0,0,0,4.5,8.3,23.9,23.9,0,0,0,7.2,5.8,20.6,20.6,0,0,0,9.4,2.1,19.3,19.3,0,0,0,9.5-2.2,22.7,22.7,0,0,0,7.1-6,27.5,27.5,0,0,0,4.4-8.3,30.3,30.3,0,0,0,1.5-9.4,31.3,31.3,0,0,0-1.6-9.7,25.3,25.3,0,0,0-4.6-8.2,20.8,20.8,0,0,0-7.1-5.7,18.7,18.7,0,0,0-9.2-2.2,20,20,0,0,0-9.6,2.3,22.4,22.4,0,0,0-7.1,5.8,26.6,26.6,0,0,0-4.5,8.3A30.3,30.3,0,0,0,1690,129.2Z" transform="translate(-53.3 -93.2)"/><path class="cls-1" d="M1818,164.7V113.6l-21.1,38.7h-6.2l-21.2-38.7v51.1h-11.2v-71h12l23.5,43.4,23.5-43.4h12v71Z" transform="translate(-53.3 -93.2)"/><path class="cls-1" d="M1894,154.8v9.9h-48.7v-71h47.8v9.9h-36.6v20.2h31.7v9.3h-31.7v21.7Z" transform="translate(-53.3 -93.2)"/><path class="cls-1" d="M1905.6,164.7v-71h11.2v71Z" transform="translate(-53.3 -93.2)"/><path class="cls-1" d="M1999.5,110.4a19.5,19.5,0,0,0-2.9-2.3,23.8,23.8,0,0,0-4.5-2.4,40.9,40.9,0,0,0-5.6-1.8,25.6,25.6,0,0,0-6.2-.7c-4.8,0-8.3.9-10.5,2.6a8.6,8.6,0,0,0-3.3,7.2,8.1,8.1,0,0,0,1,4.3,9.6,9.6,0,0,0,3.3,2.9,29.8,29.8,0,0,0,5.5,2.2l7.7,2a87,87,0,0,1,9.7,2.9,30.2,30.2,0,0,1,7.4,3.9,15.1,15.1,0,0,1,4.6,5.7,18,18,0,0,1,1.7,8.1,19.4,19.4,0,0,1-2.1,9.3,18.2,18.2,0,0,1-5.6,6.4,26.5,26.5,0,0,1-8.2,3.6,46.7,46.7,0,0,1-10.1,1.1,52,52,0,0,1-15.7-2.4,46.6,46.6,0,0,1-13.6-7.2l5.1-9.6a21.7,21.7,0,0,0,3.7,2.9,30.3,30.3,0,0,0,5.7,3,59.2,59.2,0,0,0,7.1,2.3,33.5,33.5,0,0,0,7.9.9c4.4,0,7.8-.8,10.2-2.3a7.5,7.5,0,0,0,3.6-6.8,7.3,7.3,0,0,0-1.4-4.5,12,12,0,0,0-3.8-3.1,32.1,32.1,0,0,0-6.1-2.5l-8.2-2.3a80.1,80.1,0,0,1-9.3-2.9,23.7,23.7,0,0,1-6.5-3.8,14.8,14.8,0,0,1-4-5.1,17.5,17.5,0,0,1-1.3-7.2,19.5,19.5,0,0,1,2-9.2,19,19,0,0,1,5.4-6.8,22,22,0,0,1,8.2-4.2,36.4,36.4,0,0,1,10.2-1.4,38.3,38.3,0,0,1,13.3,2.3,43.6,43.6,0,0,1,10.7,5.7Z" transform="translate(-53.3 -93.2)"/><path class="cls-1" d="M2076.9,93.7v71h-11.3V133.4h-35.8v31.3h-11.2v-71h11.2v29.7h35.8V93.7Z" transform="translate(-53.3 -93.2)"/><path class="cls-1" d="M2113.8,93.7h9.8l28,71h-11.8l-7.5-19.3h-27.4l-7.4,19.3h-11.9Zm16.3,43.4-11.4-30.5-11.8,30.5Z" transform="translate(-53.3 -93.2)"/><path class="cls-1" d="M2187.3,165.2a31.8,31.8,0,0,1-13.9-3,36,36,0,0,1-10.7-8.1,37.1,37.1,0,0,1-7-11.6,38.1,38.1,0,0,1-2.4-13.3,35,35,0,0,1,2.6-13.6,37.6,37.6,0,0,1,7.1-11.5,32.8,32.8,0,0,1,10.8-7.9,31.2,31.2,0,0,1,13.7-3,30.5,30.5,0,0,1,13.8,3.2,34.7,34.7,0,0,1,10.7,8.2,37.1,37.1,0,0,1,6.8,38.3,37.6,37.6,0,0,1-7.1,11.5,35.9,35.9,0,0,1-10.9,7.9A32.4,32.4,0,0,1,2187.3,165.2Zm-22.6-36a29,29,0,0,0,1.6,9.7,24.7,24.7,0,0,0,4.5,8.3,23.9,23.9,0,0,0,7.2,5.8,20.6,20.6,0,0,0,9.4,2.1,19.6,19.6,0,0,0,9.5-2.2,22.7,22.7,0,0,0,7.1-6,27.5,27.5,0,0,0,4.4-8.3,30.3,30.3,0,0,0,1.5-9.4,31.3,31.3,0,0,0-1.6-9.7,25.3,25.3,0,0,0-4.6-8.2,21.8,21.8,0,0,0-7.1-5.7,19,19,0,0,0-9.2-2.2,20,20,0,0,0-9.6,2.3,22.4,22.4,0,0,0-7.1,5.8,24.7,24.7,0,0,0-4.5,8.3A30.3,30.3,0,0,0,2164.7,129.2Z" transform="translate(-53.3 -93.2)"/><path class="cls-1" d="M2292.7,164.7V113.6l-21.1,38.7h-6.2l-21.2-38.7v51.1H2233v-71h12l23.5,43.4L2292,93.7h12v71Z" transform="translate(-53.3 -93.2)"/><path class="cls-1" d="M2368.7,154.8v9.9H2320v-71h47.8v9.9h-36.6v20.2h31.7v9.3h-31.7v21.7Z" transform="translate(-53.3 -93.2)"/><path class="cls-1" d="M2380.3,164.7v-71h11.2v71Z" transform="translate(-53.3 -93.2)"/></svg>